<svg xmlns="http://www.w3.org/2000/svg" xmlns:oryx="http://oryx-editor.org" id="_88C3DA5A-A7E7-4902-AC72-795DB6944361" width="834" height="265" xmlns:xlink="http://www.w3.org/1999/xlink" xmlns:svg="http://www.w3.org/2000/svg"><defs><marker id="_91331CD2-7063-43EB-A975-AD911021F539start" refX="1" refY="5" markerUnits="userSpaceOnUse" markerWidth="17" markerHeight="11" orient="auto" fill="#000000" stroke="#000000"> 	  		<path id="_91331CD2-7063-43EB-A975-AD911021F539conditional" d="M 0 5 L 8 0 L 16 5 L 8 10 L 0 5" fill="white" stroke="#000000" stroke-width="1" display="none"/> 			<path id="_91331CD2-7063-43EB-A975-AD911021F539default" d="M 5 0 L 11 10" fill="white" stroke="#000000" stroke-width="1" display="none"/> 	  	</marker><marker id="_91331CD2-7063-43EB-A975-AD911021F539end" refX="15" refY="6" markerUnits="userSpaceOnUse" markerWidth="15" markerHeight="12" orient="auto" fill="#000000" stroke="#000000"> 	  		<path id="_91331CD2-7063-43EB-A975-AD911021F539frame2" d="M 0 1 L 15 6 L 0 11z" fill="#000000" stroke="#000000" stroke-linejoin="round" stroke-width="2"/> 	  	</marker><marker id="_2C5AE3C6-C066-461C-BBD0-4CFB56CEBD1Dstart" refX="1" refY="5" markerUnits="userSpaceOnUse" markerWidth="17" markerHeight="11" orient="auto" fill="#000000" stroke="#000000"> 	  		<path id="_2C5AE3C6-C066-461C-BBD0-4CFB56CEBD1Dconditional" d="M 0 5 L 8 0 L 16 5 L 8 10 L 0 5" fill="white" stroke="#000000" stroke-width="1" display="none"/> 			<path id="_2C5AE3C6-C066-461C-BBD0-4CFB56CEBD1Ddefault" d="M 5 0 L 11 10" fill="white" stroke="#000000" stroke-width="1" display="none"/> 	  	</marker><marker id="_2C5AE3C6-C066-461C-BBD0-4CFB56CEBD1Dend" refX="15" refY="6" markerUnits="userSpaceOnUse" markerWidth="15" markerHeight="12" orient="auto" fill="#000000" stroke="#000000"> 	  		<path id="_2C5AE3C6-C066-461C-BBD0-4CFB56CEBD1Dframe2" d="M 0 1 L 15 6 L 0 11z" fill="#000000" stroke="#000000" stroke-linejoin="round" stroke-width="2"/> 	  	</marker><marker id="_03528797-7B8A-4F86-96AF-D5D19CF724CEstart" refX="1" refY="5" markerUnits="userSpaceOnUse" markerWidth="17" markerHeight="11" orient="auto" fill="#000000" stroke="#000000"> 	  		<path id="_03528797-7B8A-4F86-96AF-D5D19CF724CEconditional" d="M 0 5 L 8 0 L 16 5 L 8 10 L 0 5" fill="white" stroke="#000000" stroke-width="1" display="none"/> 			<path id="_03528797-7B8A-4F86-96AF-D5D19CF724CEdefault" d="M 5 0 L 11 10" fill="white" stroke="#000000" stroke-width="1" display="none"/> 	  	</marker><marker id="_03528797-7B8A-4F86-96AF-D5D19CF724CEend" refX="15" refY="6" markerUnits="userSpaceOnUse" markerWidth="15" markerHeight="12" orient="auto" fill="#000000" stroke="#000000"> 	  		<path id="_03528797-7B8A-4F86-96AF-D5D19CF724CEframe2" d="M 0 1 L 15 6 L 0 11z" fill="#000000" stroke="#000000" stroke-linejoin="round" stroke-width="2"/> 	  	</marker><marker id="_10B5FD1B-4C0B-4DD1-BCC0-03AD73E3FC75start" refX="1" refY="5" markerUnits="userSpaceOnUse" markerWidth="17" markerHeight="11" orient="auto" fill="#000000" stroke="#000000"> 	  		<path id="_10B5FD1B-4C0B-4DD1-BCC0-03AD73E3FC75conditional" d="M 0 5 L 8 0 L 16 5 L 8 10 L 0 5" fill="white" stroke="#000000" stroke-width="1" display="none"/> 			<path id="_10B5FD1B-4C0B-4DD1-BCC0-03AD73E3FC75default" d="M 5 0 L 11 10" fill="white" stroke="#000000" stroke-width="1" display="none"/> 	  	</marker><marker id="_10B5FD1B-4C0B-4DD1-BCC0-03AD73E3FC75end" refX="15" refY="6" markerUnits="userSpaceOnUse" markerWidth="15" markerHeight="12" orient="auto" fill="#000000" stroke="#000000"> 	  		<path id="_10B5FD1B-4C0B-4DD1-BCC0-03AD73E3FC75frame2" d="M 0 1 L 15 6 L 0 11z" fill="#000000" stroke="#000000" stroke-linejoin="round" stroke-width="2"/> 	  	</marker></defs><g stroke="none" font-family="Verdana, sans-serif" font-size-adjust="none" font-style="normal" font-variant="normal" font-weight="normal" line-heigth="normal" font-size="12"><g class="stencils" transform="translate(16, 16)"><g class="me"/><g class="children"><g id="_A20AD82F-D84B-4F5C-87B4-9A5AB95231E9" bpmn2nodeid="processStartEvent"><g class="stencils" transform="translate(120, 165)"><g class="me"><g pointer-events="fill" id="_A20AD82F-D84B-4F5C-87B4-9A5AB95231E9">        <defs id="_A20AD82F-D84B-4F5C-87B4-9A5AB95231E9__A20AD82F-D84B-4F5C-87B4-9A5AB95231E9_5"> 		<radialGradient id="_A20AD82F-D84B-4F5C-87B4-9A5AB95231E9background" cx="10%" cy="10%" r="100%" fx="10%" fy="10%"> 			<stop offset="0%" stop-color="#ffffff" stop-opacity="1" id="_A20AD82F-D84B-4F5C-87B4-9A5AB95231E9__A20AD82F-D84B-4F5C-87B4-9A5AB95231E9_6"/> 			<stop id="_A20AD82F-D84B-4F5C-87B4-9A5AB95231E9fill_el" offset="100%" stop-color="#9acd32" stop-opacity="1"/> 		</radialGradient> 	</defs> 	     <circle id="_A20AD82F-D84B-4F5C-87B4-9A5AB95231E9bg_frame" cx="15" cy="15" r="15" stroke="#000000" fill="url(#_A20AD82F-D84B-4F5C-87B4-9A5AB95231E9background) white" stroke-width="1" style="stroke-dasharray: 5.5, 3"/>      <circle id="_A20AD82F-D84B-4F5C-87B4-9A5AB95231E9frame" cx="15" cy="15" r="15" stroke="#000000" fill="none" stroke-width="1" display="inherit"/>  	<text font-size="11" id="_A20AD82F-D84B-4F5C-87B4-9A5AB95231E9text_name" x="15" y="32" oryx:align="top center" stroke="black" stroke-width="0pt" letter-spacing="-0.01px" fill="#000000" text-anchor="middle" transform="rotate(0 15 32)" visibility="inherit" oryx:fontSize="11"/>   </g></g><g class="children" style="overflow:hidden"/><g class="edge"/></g><g class="controls"><g class="dockers"/><g class="magnets" transform="translate(120, 165)"><g pointer-events="all" display="none" transform="translate(7, 7)"><circle cx="8" cy="8" r="4" stroke="none" fill="red" fill-opacity="0.3"/></g></g></g></g><g id="_F49B5750-6665-4EE8-93B9-067B967CA6DB" bpmn2nodeid="_E49C8567-A6FD-4124-9E4F-0946D76A295C"><g class="stencils" transform="translate(195, 140)"><g class="me"><g pointer-events="fill" oryx:minimumSize="50 40" id="_F49B5750-6665-4EE8-93B9-067B967CA6DB">   	<defs id="_F49B5750-6665-4EE8-93B9-067B967CA6DB__F49B5750-6665-4EE8-93B9-067B967CA6DB_17"> 		<radialGradient id="_F49B5750-6665-4EE8-93B9-067B967CA6DBbackground" cx="10%" cy="10%" r="100%" fx="10%" fy="10%"> 			<stop offset="0%" stop-color="#ffffff" stop-opacity="1" id="_F49B5750-6665-4EE8-93B9-067B967CA6DB__F49B5750-6665-4EE8-93B9-067B967CA6DB_18"/> 			<stop id="_F49B5750-6665-4EE8-93B9-067B967CA6DBfill_el" offset="100%" stop-color="#fafad2" stop-opacity="1"/> 		</radialGradient> 		<radialGradient id="_F49B5750-6665-4EE8-93B9-067B967CA6DBborderbackground" cx="10%" cy="10%" r="100%" fx="10%" fy="10%"> 			<stop offset="0%" stop-color="#ffffff" stop-opacity="1" id="_F49B5750-6665-4EE8-93B9-067B967CA6DB__F49B5750-6665-4EE8-93B9-067B967CA6DB_19"/> 			<stop id="_F49B5750-6665-4EE8-93B9-067B967CA6DBfill_border" offset="100%" stop-color="#000000" stop-opacity="1" stroke="#000000"/> 		</radialGradient> 	</defs> 	 	<rect id="_F49B5750-6665-4EE8-93B9-067B967CA6DBtext_frame" oryx:anchors="bottom top right left" x="1" y="1" width="94" height="79" rx="10" ry="10" stroke="none" stroke-width="0" fill="none"/> 	<rect id="_F49B5750-6665-4EE8-93B9-067B967CA6DBbg_frame" oryx:resize="vertical horizontal" x="0" y="0" width="100" height="80" rx="10" ry="10" stroke="#000000" stroke-width="1" fill="url(#_F49B5750-6665-4EE8-93B9-067B967CA6DBbackground) #ffffcc"/> 		<text font-size="12" id="_F49B5750-6665-4EE8-93B9-067B967CA6DBtext_name" x="50" y="40" oryx:align="middle center" oryx:fittoelem="text_frame" stroke="black" text-anchor="middle" stroke-width="0pt" letter-spacing="-0.01px" fill="#000000" transform="rotate(0 50 40)" visibility="inherit" oryx:fontSize="12"><tspan x="50" y="40" dy="5" id="ext-gen644">2-Minutes SLA</tspan></text>     <g id="_F49B5750-6665-4EE8-93B9-067B967CA6DBmanualTask" transform="scale(0.7,0.7) translate(8,8)" display="none">     	<path oryx:anchors="top left" id="_F49B5750-6665-4EE8-93B9-067B967CA6DBframe" style="opacity:1;fill:none;fill-opacity:1;stroke-width:1" d="M0.5,3.751l4.083-3.25c0,0,11.166,0.083,12.083,0.083s-2.417,2.917-1.5,2.917     s11.667,0,12.584,0c1.166,1.708-0.168,3.167-0.834,3.667s0.875,1.917-1,4.417c-0.75,0.25,0.75,1.875-1.333,3.333     c-1.167,0.583,0.583,1.542-1.25,2.833c-1.167,0-20.833,0.083-20.833,0.083l-2-1.333V3.751z" stroke="#000000"/> 		<path id="_F49B5750-6665-4EE8-93B9-067B967CA6DBframe2" oryx:anchors="top left" style="opacity:1;fill:none;stroke-width:2" d="M 13.5 7 L 27 7" stroke="#000000"/> 		<path id="_F49B5750-6665-4EE8-93B9-067B967CA6DBframe3" oryx:anchors="top left" style="opacity:1;fill:none;stroke-width:2" d="M 13.5 11 L 26 11" stroke="#000000"/> 		<path id="_F49B5750-6665-4EE8-93B9-067B967CA6DBframe4" oryx:anchors="top left" style="opacity:1;fill:none;stroke-width:1.5" d="M 14 14.5 L 25 14.5" stroke="#000000"/> 		<path id="_F49B5750-6665-4EE8-93B9-067B967CA6DBframe5" oryx:anchors="top left" style="opacity:1;fill:none;stroke-width:1.5" d="M 8.2 3.1 L 15 3.1" stroke="#000000"/> 	</g> 	 	<g id="_F49B5750-6665-4EE8-93B9-067B967CA6DBbusinessRuleTask" transform="scale(0.7,0.7) translate(8,8)" display="none"> 		<rect id="_F49B5750-6665-4EE8-93B9-067B967CA6DBframe6" oryx:anchors="top left" x="0" y="0" width="22" height="4" style="opacity:1;fill:#B3B1B3;fill-opacity:1;" stroke="#000000"/> 		<rect id="_F49B5750-6665-4EE8-93B9-067B967CA6DBframe7" oryx:anchors="top left" x="0" y="4" style="opacity:1;fill:none;" width="22" height="12" stroke="#000000"/> 		<path id="_F49B5750-6665-4EE8-93B9-067B967CA6DBframe8" oryx:anchors="top left" style="opacity:1;fill:none;" d="M 0 10 L 22 10" stroke="#000000"/> 		<path id="_F49B5750-6665-4EE8-93B9-067B967CA6DBframe9" oryx:anchors="top left" style="opacity:1; fill:none;" d="M 7 4 L 7 16" stroke="#000000"/> 	</g> 	 	<g id="_F49B5750-6665-4EE8-93B9-067B967CA6DBscriptTask" transform="scale(0.7,0.7) translate(8,8)" display="none"> 		<path oryx:anchors="top left" id="_F49B5750-6665-4EE8-93B9-067B967CA6DBframe10" style="opacity:1;fill:none;" stroke="#000000" d="M6.402,0.5h14.5c0,0-5.833,2.833-5.833,5.583s4.417,6,4.417,9.167    s-4.167,5.083-4.167,5.083H0.235c0,0,5-2.667,5-5s-4.583-6.75-4.583-9.25S6.402,0.5,6.402,0.5z"/> 		<path oryx:anchors="top left" id="_F49B5750-6665-4EE8-93B9-067B967CA6DBframe11" style="opacity:1;fill:none;stroke-width:1.5" d="M 3.5 4.5 L 13.5 4.5" stroke="#000000"/> 		<path oryx:anchors="top left" id="_F49B5750-6665-4EE8-93B9-067B967CA6DBframe12" style="opacity:1;fill:none;stroke-width:1.5" d="M 3.8 8.5 L 13.8 8.5" stroke="#000000"/> 		<path oryx:anchors="top left" id="_F49B5750-6665-4EE8-93B9-067B967CA6DBframe13" style="opacity:1;fill:none;stroke-width:1.5" d="M 6.3 12.5 L 16.3 12.5" stroke="#000000"/> 		<path oryx:anchors="top left" id="_F49B5750-6665-4EE8-93B9-067B967CA6DBframe14" style="opacity:1;fill:none;stroke-width:1.5" d="M 6.5 16.5 L 16.5 16.5" stroke="#000000"/> 	</g> 	 	<g id="_F49B5750-6665-4EE8-93B9-067B967CA6DBuserTask" transform="scale(0.7,0.7) translate(8,8)" display="inherit"> 		<path id="_F49B5750-6665-4EE8-93B9-067B967CA6DBframe15" oryx:anchors="top left" style="opacity:1;fill:#F4F6F7" stroke="#000000" d="M0.585,24.167h24.083v-7.833c0,0-2.333-3.917-7.083-5.167h-9.25    c-4.417,1.333-7.833,5.75-7.833,5.75L0.585,24.167z"/> 		<path id="_F49B5750-6665-4EE8-93B9-067B967CA6DBframe16" oryx:anchors="top left" style="opacity:1;fill:none" d="M 6 20 L 6 24" stroke="#000000"/> 		<path id="_F49B5750-6665-4EE8-93B9-067B967CA6DBframe17" oryx:anchors="top left" style="opacity:1;fill:none" d="M 20 20 L 20 24" stroke="#000000"/> 		<circle id="_F49B5750-6665-4EE8-93B9-067B967CA6DBframe18" oryx:anchors="top left" fill="black" cx="13.002" cy="5.916" r="5.417" stroke="#000000"/> 		<path id="_F49B5750-6665-4EE8-93B9-067B967CA6DBframe19" oryx:anchors="top left" style="opacity:1;fill:#F0EFF0;" stroke="#000000" d="M8.043,7.083c0,0,2.814-2.426,5.376-1.807s4.624-0.693,4.624-0.693    c0.25,1.688,0.042,3.75-1.458,5.584c0,0,1.083,0.75,1.083,1.5s0.125,1.875-1,3s-5.5,1.25-6.75,0S8.668,12.834,8.668,12    s0.583-1.25,1.25-1.917C8.835,9.5,7.419,7.708,8.043,7.083z"/> 	</g> 	 	<g id="_F49B5750-6665-4EE8-93B9-067B967CA6DBserviceTask" transform="scale(0.7,0.7) translate(8,8)" display="none"> 		<polygon oryx:anchors="top left" id="_F49B5750-6665-4EE8-93B9-067B967CA6DBframe20" style="opacity:1;fill:#ffffff" stroke="#000000" points="15.392,5.064 17.954,2.502 20.347,4.895 17.786,7.455     18.729,9.732 22.353,9.732 22.353,13.115 18.731,13.115 17.788,15.392 20.351,17.955 17.958,20.347 15.397,17.786 13.12,18.729     13.12,22.353 9.737,22.353 9.737,18.731 7.46,17.788 4.897,20.35 2.506,17.958 5.066,15.397 4.124,13.12 0.5,13.12 0.5,9.737     4.121,9.737 5.065,7.461 2.503,4.898 4.895,2.506 7.455,5.066 9.732,4.125 9.732,0.5 13.116,0.5 13.116,4.121 "/> 		<circle oryx:anchors="top left" id="_F49B5750-6665-4EE8-93B9-067B967CA6DBframe21" style="opacity:1;fill:none" stroke="#000000" cx="11.427" cy="11.426" r="3.714"/> 		<polygon oryx:anchors="top left" id="_F49B5750-6665-4EE8-93B9-067B967CA6DBframe22" style="opacity:1;fill:#ffffff" stroke="#000000" points="21.392,11.064 23.954,8.502 26.347,10.895 23.786,13.455     24.729,15.732 28.353,15.732 28.353,19.115 24.731,19.115 23.788,21.392 26.351,23.955 23.958,26.347 21.397,23.786 19.12,24.729     19.12,28.353 15.737,28.353 15.737,24.731 13.46,23.788 10.897,26.35 8.506,23.958 11.066,21.397 10.124,19.12 6.5,19.12     6.5,15.737 10.121,15.737 11.065,13.461 8.503,10.898 10.895,8.506 13.455,11.066 15.732,10.125 15.732,6.5 19.116,6.5     19.116,10.121 "/> 		<circle oryx:anchors="top left" id="_F49B5750-6665-4EE8-93B9-067B967CA6DBframe23" style="opacity:1;fill:none;" stroke="#000000" cx="17.427" cy="17.426" r="3.714"/> 	</g> 	 	<g id="_F49B5750-6665-4EE8-93B9-067B967CA6DBsendTask" display="none"> 		<path id="_F49B5750-6665-4EE8-93B9-067B967CA6DBstframe24" oryx:anchors="left top" stroke="#FFFFFF" fill="black" stroke-width="1" d="M8,11 L8,21 L24,21 L24,11 L16,17z"/> 		<path id="_F49B5750-6665-4EE8-93B9-067B967CA6DBstframe25" oryx:anchors="left top" stroke="#FFFFFF" fill="black" stroke-width="1" d="M7,10 L16,17 L25 10z"/> 	</g> 	 	<g id="_F49B5750-6665-4EE8-93B9-067B967CA6DBreceiveTask" display="none"> 		<path id="_F49B5750-6665-4EE8-93B9-067B967CA6DBframe26" oryx:anchors="left top" stroke="#000000" fill="none" stroke-width="1" d="M8,11 L8,21 L24,21 L24,11z M8,11 L16,17 L24,11"/> 	</g> 	 	<g id="_F49B5750-6665-4EE8-93B9-067B967CA6DBnone" display="inherit"/>  	<g id="_F49B5750-6665-4EE8-93B9-067B967CA6DBsequential" display="none">         <path oryx:anchors="bottom" fill="none" stroke="#000000" stroke-width="2" d="M46,76h10M46,72h10 M46,68h10" id="_F49B5750-6665-4EE8-93B9-067B967CA6DB__F49B5750-6665-4EE8-93B9-067B967CA6DB_20"/>     </g>   </g></g><g class="children" style="overflow:hidden"/><g class="edge"/></g><g class="controls"><g class="dockers"/><g class="magnets" transform="translate(195, 140)"><g pointer-events="all" display="none" transform="translate(-7, 12)"><circle cx="8" cy="8" r="4" stroke="none" fill="red" fill-opacity="0.3"/></g><g pointer-events="all" display="none" transform="translate(-7, 32)"><circle cx="8" cy="8" r="4" stroke="none" fill="red" fill-opacity="0.3"/></g><g pointer-events="all" display="none" transform="translate(-7, 52)"><circle cx="8" cy="8" r="4" stroke="none" fill="red" fill-opacity="0.3"/></g><g pointer-events="all" display="none" transform="translate(17, 71)"><circle cx="8" cy="8" r="4" stroke="none" fill="red" fill-opacity="0.3"/></g><g pointer-events="all" display="none" transform="translate(42, 71)"><circle cx="8" cy="8" r="4" stroke="none" fill="red" fill-opacity="0.3"/></g><g pointer-events="all" display="none" transform="translate(67, 71)"><circle cx="8" cy="8" r="4" stroke="none" fill="red" fill-opacity="0.3"/></g><g pointer-events="all" display="none" transform="translate(91, 12)"><circle cx="8" cy="8" r="4" stroke="none" fill="red" fill-opacity="0.3"/></g><g pointer-events="all" display="none" transform="translate(91, 32)"><circle cx="8" cy="8" r="4" stroke="none" fill="red" fill-opacity="0.3"/></g><g pointer-events="all" display="none" transform="translate(91, 52)"><circle cx="8" cy="8" r="4" stroke="none" fill="red" fill-opacity="0.3"/></g><g pointer-events="all" display="none" transform="translate(17, -7)"><circle cx="8" cy="8" r="4" stroke="none" fill="red" fill-opacity="0.3"/></g><g pointer-events="all" display="none" transform="translate(42, -7)"><circle cx="8" cy="8" r="4" stroke="none" fill="red" fill-opacity="0.3"/></g><g pointer-events="all" display="none" transform="translate(67, -7)"><circle cx="8" cy="8" r="4" stroke="none" fill="red" fill-opacity="0.3"/></g><g pointer-events="all" display="none" transform="translate(42, 32)"><circle cx="8" cy="8" r="4" stroke="none" fill="red" fill-opacity="0.3"/></g></g></g></g><g id="_775EF9D8-2C23-4FBF-AD77-202712068CDA" bpmn2nodeid="_2151064D-E482-4DA5-918F-C75850CDA47B"><g class="stencils" transform="translate(360, 140)"><g class="me"><g pointer-events="fill" oryx:minimumSize="50 40" id="_775EF9D8-2C23-4FBF-AD77-202712068CDA">   	<defs id="_775EF9D8-2C23-4FBF-AD77-202712068CDA__775EF9D8-2C23-4FBF-AD77-202712068CDA_17"> 		<radialGradient id="_775EF9D8-2C23-4FBF-AD77-202712068CDAbackground" cx="10%" cy="10%" r="100%" fx="10%" fy="10%"> 			<stop offset="0%" stop-color="#ffffff" stop-opacity="1" id="_775EF9D8-2C23-4FBF-AD77-202712068CDA__775EF9D8-2C23-4FBF-AD77-202712068CDA_18"/> 			<stop id="_775EF9D8-2C23-4FBF-AD77-202712068CDAfill_el" offset="100%" stop-color="#fafad2" stop-opacity="1"/> 		</radialGradient> 		<radialGradient id="_775EF9D8-2C23-4FBF-AD77-202712068CDAborderbackground" cx="10%" cy="10%" r="100%" fx="10%" fy="10%"> 			<stop offset="0%" stop-color="#ffffff" stop-opacity="1" id="_775EF9D8-2C23-4FBF-AD77-202712068CDA__775EF9D8-2C23-4FBF-AD77-202712068CDA_19"/> 			<stop id="_775EF9D8-2C23-4FBF-AD77-202712068CDAfill_border" offset="100%" stop-color="#000000" stop-opacity="1" stroke="#000000"/> 		</radialGradient> 	</defs> 	 	<rect id="_775EF9D8-2C23-4FBF-AD77-202712068CDAtext_frame" oryx:anchors="bottom top right left" x="1" y="1" width="94" height="79" rx="10" ry="10" stroke="none" stroke-width="0" fill="none"/> 	<rect id="_775EF9D8-2C23-4FBF-AD77-202712068CDAbg_frame" oryx:resize="vertical horizontal" x="0" y="0" width="100" height="80" rx="10" ry="10" stroke="#000000" stroke-width="1" fill="url(#_775EF9D8-2C23-4FBF-AD77-202712068CDAbackground) #ffffcc"/> 		<text font-size="12" id="_775EF9D8-2C23-4FBF-AD77-202712068CDAtext_name" x="50" y="40" oryx:align="middle center" oryx:fittoelem="text_frame" stroke="black" text-anchor="middle" stroke-width="0pt" letter-spacing="-0.01px" fill="#000000" transform="rotate(0 50 40)" visibility="inherit" oryx:fontSize="12"><tspan x="50" y="40" dy="-1">30-Seconds </tspan><tspan x="50" y="40" dy="11">SLA</tspan></text>     <g id="_775EF9D8-2C23-4FBF-AD77-202712068CDAmanualTask" transform="scale(0.7,0.7) translate(8,8)" display="none">     	<path oryx:anchors="top left" id="_775EF9D8-2C23-4FBF-AD77-202712068CDAframe" style="opacity:1;fill:none;fill-opacity:1;stroke-width:1" d="M0.5,3.751l4.083-3.25c0,0,11.166,0.083,12.083,0.083s-2.417,2.917-1.5,2.917     s11.667,0,12.584,0c1.166,1.708-0.168,3.167-0.834,3.667s0.875,1.917-1,4.417c-0.75,0.25,0.75,1.875-1.333,3.333     c-1.167,0.583,0.583,1.542-1.25,2.833c-1.167,0-20.833,0.083-20.833,0.083l-2-1.333V3.751z" stroke="#000000"/> 		<path id="_775EF9D8-2C23-4FBF-AD77-202712068CDAframe2" oryx:anchors="top left" style="opacity:1;fill:none;stroke-width:2" d="M 13.5 7 L 27 7" stroke="#000000"/> 		<path id="_775EF9D8-2C23-4FBF-AD77-202712068CDAframe3" oryx:anchors="top left" style="opacity:1;fill:none;stroke-width:2" d="M 13.5 11 L 26 11" stroke="#000000"/> 		<path id="_775EF9D8-2C23-4FBF-AD77-202712068CDAframe4" oryx:anchors="top left" style="opacity:1;fill:none;stroke-width:1.5" d="M 14 14.5 L 25 14.5" stroke="#000000"/> 		<path id="_775EF9D8-2C23-4FBF-AD77-202712068CDAframe5" oryx:anchors="top left" style="opacity:1;fill:none;stroke-width:1.5" d="M 8.2 3.1 L 15 3.1" stroke="#000000"/> 	</g> 	 	<g id="_775EF9D8-2C23-4FBF-AD77-202712068CDAbusinessRuleTask" transform="scale(0.7,0.7) translate(8,8)" display="none"> 		<rect id="_775EF9D8-2C23-4FBF-AD77-202712068CDAframe6" oryx:anchors="top left" x="0" y="0" width="22" height="4" style="opacity:1;fill:#B3B1B3;fill-opacity:1;" stroke="#000000"/> 		<rect id="_775EF9D8-2C23-4FBF-AD77-202712068CDAframe7" oryx:anchors="top left" x="0" y="4" style="opacity:1;fill:none;" width="22" height="12" stroke="#000000"/> 		<path id="_775EF9D8-2C23-4FBF-AD77-202712068CDAframe8" oryx:anchors="top left" style="opacity:1;fill:none;" d="M 0 10 L 22 10" stroke="#000000"/> 		<path id="_775EF9D8-2C23-4FBF-AD77-202712068CDAframe9" oryx:anchors="top left" style="opacity:1; fill:none;" d="M 7 4 L 7 16" stroke="#000000"/> 	</g> 	 	<g id="_775EF9D8-2C23-4FBF-AD77-202712068CDAscriptTask" transform="scale(0.7,0.7) translate(8,8)" display="none"> 		<path oryx:anchors="top left" id="_775EF9D8-2C23-4FBF-AD77-202712068CDAframe10" style="opacity:1;fill:none;" stroke="#000000" d="M6.402,0.5h14.5c0,0-5.833,2.833-5.833,5.583s4.417,6,4.417,9.167    s-4.167,5.083-4.167,5.083H0.235c0,0,5-2.667,5-5s-4.583-6.75-4.583-9.25S6.402,0.5,6.402,0.5z"/> 		<path oryx:anchors="top left" id="_775EF9D8-2C23-4FBF-AD77-202712068CDAframe11" style="opacity:1;fill:none;stroke-width:1.5" d="M 3.5 4.5 L 13.5 4.5" stroke="#000000"/> 		<path oryx:anchors="top left" id="_775EF9D8-2C23-4FBF-AD77-202712068CDAframe12" style="opacity:1;fill:none;stroke-width:1.5" d="M 3.8 8.5 L 13.8 8.5" stroke="#000000"/> 		<path oryx:anchors="top left" id="_775EF9D8-2C23-4FBF-AD77-202712068CDAframe13" style="opacity:1;fill:none;stroke-width:1.5" d="M 6.3 12.5 L 16.3 12.5" stroke="#000000"/> 		<path oryx:anchors="top left" id="_775EF9D8-2C23-4FBF-AD77-202712068CDAframe14" style="opacity:1;fill:none;stroke-width:1.5" d="M 6.5 16.5 L 16.5 16.5" stroke="#000000"/> 	</g> 	 	<g id="_775EF9D8-2C23-4FBF-AD77-202712068CDAuserTask" transform="scale(0.7,0.7) translate(8,8)" display="inherit"> 		<path id="_775EF9D8-2C23-4FBF-AD77-202712068CDAframe15" oryx:anchors="top left" style="opacity:1;fill:#F4F6F7" stroke="#000000" d="M0.585,24.167h24.083v-7.833c0,0-2.333-3.917-7.083-5.167h-9.25    c-4.417,1.333-7.833,5.75-7.833,5.75L0.585,24.167z"/> 		<path id="_775EF9D8-2C23-4FBF-AD77-202712068CDAframe16" oryx:anchors="top left" style="opacity:1;fill:none" d="M 6 20 L 6 24" stroke="#000000"/> 		<path id="_775EF9D8-2C23-4FBF-AD77-202712068CDAframe17" oryx:anchors="top left" style="opacity:1;fill:none" d="M 20 20 L 20 24" stroke="#000000"/> 		<circle id="_775EF9D8-2C23-4FBF-AD77-202712068CDAframe18" oryx:anchors="top left" fill="black" cx="13.002" cy="5.916" r="5.417" stroke="#000000"/> 		<path id="_775EF9D8-2C23-4FBF-AD77-202712068CDAframe19" oryx:anchors="top left" style="opacity:1;fill:#F0EFF0;" stroke="#000000" d="M8.043,7.083c0,0,2.814-2.426,5.376-1.807s4.624-0.693,4.624-0.693    c0.25,1.688,0.042,3.75-1.458,5.584c0,0,1.083,0.75,1.083,1.5s0.125,1.875-1,3s-5.5,1.25-6.75,0S8.668,12.834,8.668,12    s0.583-1.25,1.25-1.917C8.835,9.5,7.419,7.708,8.043,7.083z"/> 	</g> 	 	<g id="_775EF9D8-2C23-4FBF-AD77-202712068CDAserviceTask" transform="scale(0.7,0.7) translate(8,8)" display="none"> 		<polygon oryx:anchors="top left" id="_775EF9D8-2C23-4FBF-AD77-202712068CDAframe20" style="opacity:1;fill:#ffffff" stroke="#000000" points="15.392,5.064 17.954,2.502 20.347,4.895 17.786,7.455     18.729,9.732 22.353,9.732 22.353,13.115 18.731,13.115 17.788,15.392 20.351,17.955 17.958,20.347 15.397,17.786 13.12,18.729     13.12,22.353 9.737,22.353 9.737,18.731 7.46,17.788 4.897,20.35 2.506,17.958 5.066,15.397 4.124,13.12 0.5,13.12 0.5,9.737     4.121,9.737 5.065,7.461 2.503,4.898 4.895,2.506 7.455,5.066 9.732,4.125 9.732,0.5 13.116,0.5 13.116,4.121 "/> 		<circle oryx:anchors="top left" id="_775EF9D8-2C23-4FBF-AD77-202712068CDAframe21" style="opacity:1;fill:none" stroke="#000000" cx="11.427" cy="11.426" r="3.714"/> 		<polygon oryx:anchors="top left" id="_775EF9D8-2C23-4FBF-AD77-202712068CDAframe22" style="opacity:1;fill:#ffffff" stroke="#000000" points="21.392,11.064 23.954,8.502 26.347,10.895 23.786,13.455     24.729,15.732 28.353,15.732 28.353,19.115 24.731,19.115 23.788,21.392 26.351,23.955 23.958,26.347 21.397,23.786 19.12,24.729     19.12,28.353 15.737,28.353 15.737,24.731 13.46,23.788 10.897,26.35 8.506,23.958 11.066,21.397 10.124,19.12 6.5,19.12     6.5,15.737 10.121,15.737 11.065,13.461 8.503,10.898 10.895,8.506 13.455,11.066 15.732,10.125 15.732,6.5 19.116,6.5     19.116,10.121 "/> 		<circle oryx:anchors="top left" id="_775EF9D8-2C23-4FBF-AD77-202712068CDAframe23" style="opacity:1;fill:none;" stroke="#000000" cx="17.427" cy="17.426" r="3.714"/> 	</g> 	 	<g id="_775EF9D8-2C23-4FBF-AD77-202712068CDAsendTask" display="none"> 		<path id="_775EF9D8-2C23-4FBF-AD77-202712068CDAstframe24" oryx:anchors="left top" stroke="#FFFFFF" fill="black" stroke-width="1" d="M8,11 L8,21 L24,21 L24,11 L16,17z"/> 		<path id="_775EF9D8-2C23-4FBF-AD77-202712068CDAstframe25" oryx:anchors="left top" stroke="#FFFFFF" fill="black" stroke-width="1" d="M7,10 L16,17 L25 10z"/> 	</g> 	 	<g id="_775EF9D8-2C23-4FBF-AD77-202712068CDAreceiveTask" display="none"> 		<path id="_775EF9D8-2C23-4FBF-AD77-202712068CDAframe26" oryx:anchors="left top" stroke="#000000" fill="none" stroke-width="1" d="M8,11 L8,21 L24,21 L24,11z M8,11 L16,17 L24,11"/> 	</g> 	 	<g id="_775EF9D8-2C23-4FBF-AD77-202712068CDAnone" display="inherit"/>  	<g id="_775EF9D8-2C23-4FBF-AD77-202712068CDAsequential" display="none">         <path oryx:anchors="bottom" fill="none" stroke="#000000" stroke-width="2" d="M46,76h10M46,72h10 M46,68h10" id="_775EF9D8-2C23-4FBF-AD77-202712068CDA__775EF9D8-2C23-4FBF-AD77-202712068CDA_20"/>     </g>   </g></g><g class="children" style="overflow:hidden"/><g class="edge"/></g><g class="controls"><g class="dockers"/><g class="magnets" transform="translate(360, 140)"><g pointer-events="all" display="none" transform="translate(-7, 12)"><circle cx="8" cy="8" r="4" stroke="none" fill="red" fill-opacity="0.3"/></g><g pointer-events="all" display="none" transform="translate(-7, 32)"><circle cx="8" cy="8" r="4" stroke="none" fill="red" fill-opacity="0.3"/></g><g pointer-events="all" display="none" transform="translate(-7, 52)"><circle cx="8" cy="8" r="4" stroke="none" fill="red" fill-opacity="0.3"/></g><g pointer-events="all" display="none" transform="translate(17, 71)"><circle cx="8" cy="8" r="4" stroke="none" fill="red" fill-opacity="0.3"/></g><g pointer-events="all" display="none" transform="translate(42, 71)"><circle cx="8" cy="8" r="4" stroke="none" fill="red" fill-opacity="0.3"/></g><g pointer-events="all" display="none" transform="translate(67, 71)"><circle cx="8" cy="8" r="4" stroke="none" fill="red" fill-opacity="0.3"/></g><g pointer-events="all" display="none" transform="translate(91, 12)"><circle cx="8" cy="8" r="4" stroke="none" fill="red" fill-opacity="0.3"/></g><g pointer-events="all" display="none" transform="translate(91, 32)"><circle cx="8" cy="8" r="4" stroke="none" fill="red" fill-opacity="0.3"/></g><g pointer-events="all" display="none" transform="translate(91, 52)"><circle cx="8" cy="8" r="4" stroke="none" fill="red" fill-opacity="0.3"/></g><g pointer-events="all" display="none" transform="translate(17, -7)"><circle cx="8" cy="8" r="4" stroke="none" fill="red" fill-opacity="0.3"/></g><g pointer-events="all" display="none" transform="translate(42, -7)"><circle cx="8" cy="8" r="4" stroke="none" fill="red" fill-opacity="0.3"/></g><g pointer-events="all" display="none" transform="translate(67, -7)"><circle cx="8" cy="8" r="4" stroke="none" fill="red" fill-opacity="0.3"/></g><g pointer-events="all" display="none" transform="translate(42, 32)"><circle cx="8" cy="8" r="4" stroke="none" fill="red" fill-opacity="0.3"/></g></g></g></g><g id="_2D281688-AA9C-4271-8FE6-89EBDC6F7C65" bpmn2nodeid="_7ABC2C9A-11F8-4E6F-BC57-861599EEBE96"><g class="stencils" transform="translate(765, 166)"><g class="me"><g pointer-events="fill" id="_2D281688-AA9C-4271-8FE6-89EBDC6F7C65">      <defs id="_2D281688-AA9C-4271-8FE6-89EBDC6F7C65__2D281688-AA9C-4271-8FE6-89EBDC6F7C65_5"> 		<radialGradient id="_2D281688-AA9C-4271-8FE6-89EBDC6F7C65background" cx="10%" cy="10%" r="100%" fx="10%" fy="10%"> 			<stop offset="0%" stop-color="#ffffff" stop-opacity="1" id="_2D281688-AA9C-4271-8FE6-89EBDC6F7C65__2D281688-AA9C-4271-8FE6-89EBDC6F7C65_6"/> 			<stop id="_2D281688-AA9C-4271-8FE6-89EBDC6F7C65fill_el" offset="100%" stop-color="#ff6347" stop-opacity="1"/> 		</radialGradient> 	</defs> 	     <circle id="_2D281688-AA9C-4271-8FE6-89EBDC6F7C65bg_frame" cx="14" cy="14" r="14" stroke="#000000" fill="url(#_2D281688-AA9C-4271-8FE6-89EBDC6F7C65background) white" stroke-width="3"/> 	<text font-size="11" id="_2D281688-AA9C-4271-8FE6-89EBDC6F7C65text_name" x="14" y="30" oryx:align="top center" stroke="black" stroke-width="0pt" letter-spacing="-0.01px" fill="#000000" text-anchor="middle" transform="rotate(0 14 30)" visibility="inherit" oryx:fontSize="11"/>   </g></g><g class="children" style="overflow:hidden"/><g class="edge"/></g><g class="controls"><g class="dockers"/><g class="magnets" transform="translate(765, 166)"><g pointer-events="all" display="none" transform="translate(6, 6)"><circle cx="8" cy="8" r="4" stroke="none" fill="red" fill-opacity="0.3"/></g></g></g></g><g id="_A29D6086-4800-419B-9012-A521D23EE132" bpmn2nodeid="_78857A7C-4C36-4EEF-8755-969FA1806416"><g class="stencils" transform="translate(540, 140)"><g class="me"><g pointer-events="fill" oryx:minimumSize="50 40" id="_A29D6086-4800-419B-9012-A521D23EE132">   	<defs id="_A29D6086-4800-419B-9012-A521D23EE132__A29D6086-4800-419B-9012-A521D23EE132_17"> 		<radialGradient id="_A29D6086-4800-419B-9012-A521D23EE132background" cx="10%" cy="10%" r="100%" fx="10%" fy="10%"> 			<stop offset="0%" stop-color="#ffffff" stop-opacity="1" id="_A29D6086-4800-419B-9012-A521D23EE132__A29D6086-4800-419B-9012-A521D23EE132_18"/> 			<stop id="_A29D6086-4800-419B-9012-A521D23EE132fill_el" offset="100%" stop-color="#fafad2" stop-opacity="1"/> 		</radialGradient> 		<radialGradient id="_A29D6086-4800-419B-9012-A521D23EE132borderbackground" cx="10%" cy="10%" r="100%" fx="10%" fy="10%"> 			<stop offset="0%" stop-color="#ffffff" stop-opacity="1" id="_A29D6086-4800-419B-9012-A521D23EE132__A29D6086-4800-419B-9012-A521D23EE132_19"/> 			<stop id="_A29D6086-4800-419B-9012-A521D23EE132fill_border" offset="100%" stop-color="#000000" stop-opacity="1" stroke="#000000"/> 		</radialGradient> 	</defs> 	 	<rect id="_A29D6086-4800-419B-9012-A521D23EE132text_frame" oryx:anchors="bottom top right left" x="1" y="1" width="94" height="79" rx="10" ry="10" stroke="none" stroke-width="0" fill="none"/> 	<rect id="_A29D6086-4800-419B-9012-A521D23EE132bg_frame" oryx:resize="vertical horizontal" x="0" y="0" width="100" height="80" rx="10" ry="10" stroke="#000000" stroke-width="1" fill="url(#_A29D6086-4800-419B-9012-A521D23EE132background) #ffffcc"/> 		<text font-size="12" id="_A29D6086-4800-419B-9012-A521D23EE132text_name" x="50" y="40" oryx:align="middle center" oryx:fittoelem="text_frame" stroke="black" text-anchor="middle" stroke-width="0pt" letter-spacing="-0.01px" fill="#000000" transform="rotate(0 50 40)" visibility="inherit" oryx:fontSize="12"><tspan x="50" y="40" dy="5" id="ext-gen642">10-Minutes SLA</tspan></text>     <g id="_A29D6086-4800-419B-9012-A521D23EE132manualTask" transform="scale(0.7,0.7) translate(8,8)" display="none">     	<path oryx:anchors="top left" id="_A29D6086-4800-419B-9012-A521D23EE132frame" style="opacity:1;fill:none;fill-opacity:1;stroke-width:1" d="M0.5,3.751l4.083-3.25c0,0,11.166,0.083,12.083,0.083s-2.417,2.917-1.5,2.917     s11.667,0,12.584,0c1.166,1.708-0.168,3.167-0.834,3.667s0.875,1.917-1,4.417c-0.75,0.25,0.75,1.875-1.333,3.333     c-1.167,0.583,0.583,1.542-1.25,2.833c-1.167,0-20.833,0.083-20.833,0.083l-2-1.333V3.751z" stroke="#000000"/> 		<path id="_A29D6086-4800-419B-9012-A521D23EE132frame2" oryx:anchors="top left" style="opacity:1;fill:none;stroke-width:2" d="M 13.5 7 L 27 7" stroke="#000000"/> 		<path id="_A29D6086-4800-419B-9012-A521D23EE132frame3" oryx:anchors="top left" style="opacity:1;fill:none;stroke-width:2" d="M 13.5 11 L 26 11" stroke="#000000"/> 		<path id="_A29D6086-4800-419B-9012-A521D23EE132frame4" oryx:anchors="top left" style="opacity:1;fill:none;stroke-width:1.5" d="M 14 14.5 L 25 14.5" stroke="#000000"/> 		<path id="_A29D6086-4800-419B-9012-A521D23EE132frame5" oryx:anchors="top left" style="opacity:1;fill:none;stroke-width:1.5" d="M 8.2 3.1 L 15 3.1" stroke="#000000"/> 	</g> 	 	<g id="_A29D6086-4800-419B-9012-A521D23EE132businessRuleTask" transform="scale(0.7,0.7) translate(8,8)" display="none"> 		<rect id="_A29D6086-4800-419B-9012-A521D23EE132frame6" oryx:anchors="top left" x="0" y="0" width="22" height="4" style="opacity:1;fill:#B3B1B3;fill-opacity:1;" stroke="#000000"/> 		<rect id="_A29D6086-4800-419B-9012-A521D23EE132frame7" oryx:anchors="top left" x="0" y="4" style="opacity:1;fill:none;" width="22" height="12" stroke="#000000"/> 		<path id="_A29D6086-4800-419B-9012-A521D23EE132frame8" oryx:anchors="top left" style="opacity:1;fill:none;" d="M 0 10 L 22 10" stroke="#000000"/> 		<path id="_A29D6086-4800-419B-9012-A521D23EE132frame9" oryx:anchors="top left" style="opacity:1; fill:none;" d="M 7 4 L 7 16" stroke="#000000"/> 	</g> 	 	<g id="_A29D6086-4800-419B-9012-A521D23EE132scriptTask" transform="scale(0.7,0.7) translate(8,8)" display="none"> 		<path oryx:anchors="top left" id="_A29D6086-4800-419B-9012-A521D23EE132frame10" style="opacity:1;fill:none;" stroke="#000000" d="M6.402,0.5h14.5c0,0-5.833,2.833-5.833,5.583s4.417,6,4.417,9.167    s-4.167,5.083-4.167,5.083H0.235c0,0,5-2.667,5-5s-4.583-6.75-4.583-9.25S6.402,0.5,6.402,0.5z"/> 		<path oryx:anchors="top left" id="_A29D6086-4800-419B-9012-A521D23EE132frame11" style="opacity:1;fill:none;stroke-width:1.5" d="M 3.5 4.5 L 13.5 4.5" stroke="#000000"/> 		<path oryx:anchors="top left" id="_A29D6086-4800-419B-9012-A521D23EE132frame12" style="opacity:1;fill:none;stroke-width:1.5" d="M 3.8 8.5 L 13.8 8.5" stroke="#000000"/> 		<path oryx:anchors="top left" id="_A29D6086-4800-419B-9012-A521D23EE132frame13" style="opacity:1;fill:none;stroke-width:1.5" d="M 6.3 12.5 L 16.3 12.5" stroke="#000000"/> 		<path oryx:anchors="top left" id="_A29D6086-4800-419B-9012-A521D23EE132frame14" style="opacity:1;fill:none;stroke-width:1.5" d="M 6.5 16.5 L 16.5 16.5" stroke="#000000"/> 	</g> 	 	<g id="_A29D6086-4800-419B-9012-A521D23EE132userTask" transform="scale(0.7,0.7) translate(8,8)" display="inherit"> 		<path id="_A29D6086-4800-419B-9012-A521D23EE132frame15" oryx:anchors="top left" style="opacity:1;fill:#F4F6F7" stroke="#000000" d="M0.585,24.167h24.083v-7.833c0,0-2.333-3.917-7.083-5.167h-9.25    c-4.417,1.333-7.833,5.75-7.833,5.75L0.585,24.167z"/> 		<path id="_A29D6086-4800-419B-9012-A521D23EE132frame16" oryx:anchors="top left" style="opacity:1;fill:none" d="M 6 20 L 6 24" stroke="#000000"/> 		<path id="_A29D6086-4800-419B-9012-A521D23EE132frame17" oryx:anchors="top left" style="opacity:1;fill:none" d="M 20 20 L 20 24" stroke="#000000"/> 		<circle id="_A29D6086-4800-419B-9012-A521D23EE132frame18" oryx:anchors="top left" fill="black" cx="13.002" cy="5.916" r="5.417" stroke="#000000"/> 		<path id="_A29D6086-4800-419B-9012-A521D23EE132frame19" oryx:anchors="top left" style="opacity:1;fill:#F0EFF0;" stroke="#000000" d="M8.043,7.083c0,0,2.814-2.426,5.376-1.807s4.624-0.693,4.624-0.693    c0.25,1.688,0.042,3.75-1.458,5.584c0,0,1.083,0.75,1.083,1.5s0.125,1.875-1,3s-5.5,1.25-6.75,0S8.668,12.834,8.668,12    s0.583-1.25,1.25-1.917C8.835,9.5,7.419,7.708,8.043,7.083z"/> 	</g> 	 	<g id="_A29D6086-4800-419B-9012-A521D23EE132serviceTask" transform="scale(0.7,0.7) translate(8,8)" display="none"> 		<polygon oryx:anchors="top left" id="_A29D6086-4800-419B-9012-A521D23EE132frame20" style="opacity:1;fill:#ffffff" stroke="#000000" points="15.392,5.064 17.954,2.502 20.347,4.895 17.786,7.455     18.729,9.732 22.353,9.732 22.353,13.115 18.731,13.115 17.788,15.392 20.351,17.955 17.958,20.347 15.397,17.786 13.12,18.729     13.12,22.353 9.737,22.353 9.737,18.731 7.46,17.788 4.897,20.35 2.506,17.958 5.066,15.397 4.124,13.12 0.5,13.12 0.5,9.737     4.121,9.737 5.065,7.461 2.503,4.898 4.895,2.506 7.455,5.066 9.732,4.125 9.732,0.5 13.116,0.5 13.116,4.121 "/> 		<circle oryx:anchors="top left" id="_A29D6086-4800-419B-9012-A521D23EE132frame21" style="opacity:1;fill:none" stroke="#000000" cx="11.427" cy="11.426" r="3.714"/> 		<polygon oryx:anchors="top left" id="_A29D6086-4800-419B-9012-A521D23EE132frame22" style="opacity:1;fill:#ffffff" stroke="#000000" points="21.392,11.064 23.954,8.502 26.347,10.895 23.786,13.455     24.729,15.732 28.353,15.732 28.353,19.115 24.731,19.115 23.788,21.392 26.351,23.955 23.958,26.347 21.397,23.786 19.12,24.729     19.12,28.353 15.737,28.353 15.737,24.731 13.46,23.788 10.897,26.35 8.506,23.958 11.066,21.397 10.124,19.12 6.5,19.12     6.5,15.737 10.121,15.737 11.065,13.461 8.503,10.898 10.895,8.506 13.455,11.066 15.732,10.125 15.732,6.5 19.116,6.5     19.116,10.121 "/> 		<circle oryx:anchors="top left" id="_A29D6086-4800-419B-9012-A521D23EE132frame23" style="opacity:1;fill:none;" stroke="#000000" cx="17.427" cy="17.426" r="3.714"/> 	</g> 	 	<g id="_A29D6086-4800-419B-9012-A521D23EE132sendTask" display="none"> 		<path id="_A29D6086-4800-419B-9012-A521D23EE132stframe24" oryx:anchors="left top" stroke="#FFFFFF" fill="black" stroke-width="1" d="M8,11 L8,21 L24,21 L24,11 L16,17z"/> 		<path id="_A29D6086-4800-419B-9012-A521D23EE132stframe25" oryx:anchors="left top" stroke="#FFFFFF" fill="black" stroke-width="1" d="M7,10 L16,17 L25 10z"/> 	</g> 	 	<g id="_A29D6086-4800-419B-9012-A521D23EE132receiveTask" display="none"> 		<path id="_A29D6086-4800-419B-9012-A521D23EE132frame26" oryx:anchors="left top" stroke="#000000" fill="none" stroke-width="1" d="M8,11 L8,21 L24,21 L24,11z M8,11 L16,17 L24,11"/> 	</g> 	 	<g id="_A29D6086-4800-419B-9012-A521D23EE132none" display="inherit"/>  	<g id="_A29D6086-4800-419B-9012-A521D23EE132sequential" display="none">         <path oryx:anchors="bottom" fill="none" stroke="#000000" stroke-width="2" d="M46,76h10M46,72h10 M46,68h10" id="_A29D6086-4800-419B-9012-A521D23EE132__A29D6086-4800-419B-9012-A521D23EE132_20"/>     </g>   </g></g><g class="children" style="overflow:hidden"/><g class="edge"/></g><g class="controls"><g class="dockers"/><g class="magnets" transform="translate(540, 140)"><g pointer-events="all" display="none" transform="translate(-7, 12)"><circle cx="8" cy="8" r="4" stroke="none" fill="red" fill-opacity="0.3"/></g><g pointer-events="all" display="none" transform="translate(-7, 32)"><circle cx="8" cy="8" r="4" stroke="none" fill="red" fill-opacity="0.3"/></g><g pointer-events="all" display="none" transform="translate(-7, 52)"><circle cx="8" cy="8" r="4" stroke="none" fill="red" fill-opacity="0.3"/></g><g pointer-events="all" display="none" transform="translate(17, 71)"><circle cx="8" cy="8" r="4" stroke="none" fill="red" fill-opacity="0.3"/></g><g pointer-events="all" display="none" transform="translate(42, 71)"><circle cx="8" cy="8" r="4" stroke="none" fill="red" fill-opacity="0.3"/></g><g pointer-events="all" display="none" transform="translate(67, 71)"><circle cx="8" cy="8" r="4" stroke="none" fill="red" fill-opacity="0.3"/></g><g pointer-events="all" display="none" transform="translate(91, 12)"><circle cx="8" cy="8" r="4" stroke="none" fill="red" fill-opacity="0.3"/></g><g pointer-events="all" display="none" transform="translate(91, 32)"><circle cx="8" cy="8" r="4" stroke="none" fill="red" fill-opacity="0.3"/></g><g pointer-events="all" display="none" transform="translate(91, 52)"><circle cx="8" cy="8" r="4" stroke="none" fill="red" fill-opacity="0.3"/></g><g pointer-events="all" display="none" transform="translate(17, -7)"><circle cx="8" cy="8" r="4" stroke="none" fill="red" fill-opacity="0.3"/></g><g pointer-events="all" display="none" transform="translate(42, -7)"><circle cx="8" cy="8" r="4" stroke="none" fill="red" fill-opacity="0.3"/></g><g pointer-events="all" display="none" transform="translate(67, -7)"><circle cx="8" cy="8" r="4" stroke="none" fill="red" fill-opacity="0.3"/></g><g pointer-events="all" display="none" transform="translate(42, 32)"><circle cx="8" cy="8" r="4" stroke="none" fill="red" fill-opacity="0.3"/></g></g></g></g></g><g class="edge"><g id="_91331CD2-7063-43EB-A975-AD911021F539" bpmn2nodeid="_57DDE81D-7CC9-42E7-A263-03F22905E3AA"><g class="stencils"><g class="me"><g pointer-events="painted" bpmn2nodeid="_02A331EB-221E-4FF9-AB0B-AE72FEA79FC9"><path id="_91331CD2-7063-43EB-A975-AD911021F539_1" d="M150.609375 180L194.15625 180 " stroke="#000000" fill="none" stroke-width="2" stroke-linecap="round" stroke-linejoin="round" marker-start="url(#_91331CD2-7063-43EB-A975-AD911021F539start)" marker-end="url(#_91331CD2-7063-43EB-A975-AD911021F539end)"/></g><text id="_91331CD2-7063-43EB-A975-AD911021F539text_name" font-size="12" x="164.609375" y="166" oryx:edgePosition="startTop" stroke-width="0pt" letter-spacing="-0.01px" fill="#000000" text-anchor="start" transform="rotate(360 150.609375 180)" visibility="inherit" oryx:fontSize="12"/></g><g class="children" style="overflow:hidden"/><g class="edge"/></g><g class="controls"><g class="dockers"/><g class="magnets"/></g></g><g id="_2C5AE3C6-C066-461C-BBD0-4CFB56CEBD1D" bpmn2nodeid="_AEFAA48A-7DC3-4FA4-8F85-F0E573353185"><g class="stencils"><g class="me"><g pointer-events="painted" bpmn2nodeid="_6B277D2A-422C-4B7D-BACA-B358B367BE77"><path id="_2C5AE3C6-C066-461C-BBD0-4CFB56CEBD1D_1" d="M295.62890625 180L359.37109375 180 " stroke="#000000" fill="none" stroke-width="2" stroke-linecap="round" stroke-linejoin="round" marker-start="url(#_2C5AE3C6-C066-461C-BBD0-4CFB56CEBD1Dstart)" marker-end="url(#_2C5AE3C6-C066-461C-BBD0-4CFB56CEBD1Dend)"/></g><text id="_2C5AE3C6-C066-461C-BBD0-4CFB56CEBD1Dtext_name" font-size="12" x="309.62890625" y="166" oryx:edgePosition="startTop" stroke-width="0pt" letter-spacing="-0.01px" fill="#000000" text-anchor="start" transform="rotate(360 295.62890625 180)" visibility="inherit" oryx:fontSize="12"/></g><g class="children" style="overflow:hidden"/><g class="edge"/></g><g class="controls"><g class="dockers"/><g class="magnets"/></g></g><g id="_03528797-7B8A-4F86-96AF-D5D19CF724CE" bpmn2nodeid="_6AFC5F81-ECA8-4EAE-9EDE-18F58BA051A8"><g class="stencils"><g class="me"><g pointer-events="painted" bpmn2nodeid="_0465A026-F230-4FFE-9BFB-AC7039C0713E"><path id="_03528797-7B8A-4F86-96AF-D5D19CF724CE_1" d="M640.46484375 180L764.7109375 180 " stroke="#000000" fill="none" stroke-width="2" stroke-linecap="round" stroke-linejoin="round" marker-start="url(#_03528797-7B8A-4F86-96AF-D5D19CF724CEstart)" marker-end="url(#_03528797-7B8A-4F86-96AF-D5D19CF724CEend)"/></g><text id="_03528797-7B8A-4F86-96AF-D5D19CF724CEtext_name" font-size="12" x="654.46484375" y="166" oryx:edgePosition="startTop" stroke-width="0pt" letter-spacing="-0.01px" fill="#000000" text-anchor="start" transform="rotate(360 640.46484375 180)" visibility="inherit" oryx:fontSize="12"/></g><g class="children" style="overflow:hidden"/><g class="edge"/></g><g class="controls"><g class="dockers"/><g class="magnets"/></g></g><g id="_10B5FD1B-4C0B-4DD1-BCC0-03AD73E3FC75" bpmn2nodeid="_8908095A-2104-4B0F-A729-3034D3D765FF"><g class="stencils"><g class="me"><g pointer-events="painted" bpmn2nodeid="_6CD4F96C-ACD0-43E0-BC0C-C70CEF660A6F"><path id="_10B5FD1B-4C0B-4DD1-BCC0-03AD73E3FC75_1" d="M460.21875 180L539.78125 180 " stroke="#000000" fill="none" stroke-width="2" stroke-linecap="round" stroke-linejoin="round" marker-start="url(#_10B5FD1B-4C0B-4DD1-BCC0-03AD73E3FC75start)" marker-end="url(#_10B5FD1B-4C0B-4DD1-BCC0-03AD73E3FC75end)"/></g><text id="_10B5FD1B-4C0B-4DD1-BCC0-03AD73E3FC75text_name" font-size="12" x="474.21875" y="166" oryx:edgePosition="startTop" stroke-width="0pt" letter-spacing="-0.01px" fill="#000000" text-anchor="start" transform="rotate(360 460.21875 180)" visibility="inherit" oryx:fontSize="12"/></g><g class="children" style="overflow:hidden"/><g class="edge"/></g><g class="controls"><g class="dockers"/><g class="magnets"/></g></g></g><text id="_CFA7F8D1-5614-4439-9625-F9956228F250" style="stroke-width:1;fill:rgb(177,194,214);font-family:arial;font-weight:bold" font-size="12" onclick="ORYX.Plugins.CanvasTitle.openTextualAnalysis()" onmouseover="ORYX.Plugins.CanvasTitle.addToolTip('_CFA7F8D1-5614-4439-9625-F9956228F250')" transform="translate(10, 20)">TestUserTaskSLA v.1.0 (com.myspace.task_assignments.TestUserTaskSLA)</text></g></g></svg>