<svg xmlns="http://www.w3.org/2000/svg" xmlns:oryx="http://oryx-editor.org" id="_BC5E9687-B908-453B-B181-506E15A793FA" width="724" height="406" xmlns:xlink="http://www.w3.org/1999/xlink" xmlns:svg="http://www.w3.org/2000/svg"><defs><marker id="_5FAF97A5-BC89-49A8-9B50-ECE023D86CD1start" refX="1" refY="5" markerUnits="userSpaceOnUse" markerWidth="17" markerHeight="11" orient="auto" fill="#000000" stroke="#000000"> 	  		<path id="_5FAF97A5-BC89-49A8-9B50-ECE023D86CD1conditional" d="M 0 5 L 8 0 L 16 5 L 8 10 L 0 5" fill="white" stroke="#000000" stroke-width="1" display="none"/> 			<path id="_5FAF97A5-BC89-49A8-9B50-ECE023D86CD1default" d="M 5 0 L 11 10" fill="white" stroke="#000000" stroke-width="1" display="none"/> 	  	</marker><marker id="_5FAF97A5-BC89-49A8-9B50-ECE023D86CD1end" refX="15" refY="6" markerUnits="userSpaceOnUse" markerWidth="15" markerHeight="12" orient="auto" fill="#000000" stroke="#000000"> 	  		<path id="_5FAF97A5-BC89-49A8-9B50-ECE023D86CD1frame2" d="M 0 1 L 15 6 L 0 11z" fill="#000000" stroke="#000000" stroke-linejoin="round" stroke-width="2"/> 	  	</marker><marker id="_D6ABCB77-73F2-4DF1-86B2-546D9519CD13start" refX="1" refY="5" markerUnits="userSpaceOnUse" markerWidth="17" markerHeight="11" orient="auto" fill="#000000" stroke="#000000"> 	  		<path id="_D6ABCB77-73F2-4DF1-86B2-546D9519CD13conditional" d="M 0 5 L 8 0 L 16 5 L 8 10 L 0 5" fill="white" stroke="#000000" stroke-width="1" display="none"/> 			<path id="_D6ABCB77-73F2-4DF1-86B2-546D9519CD13default" d="M 5 0 L 11 10" fill="white" stroke="#000000" stroke-width="1" display="none"/> 	  	</marker><marker id="_D6ABCB77-73F2-4DF1-86B2-546D9519CD13end" refX="15" refY="6" markerUnits="userSpaceOnUse" markerWidth="15" markerHeight="12" orient="auto" fill="#000000" stroke="#000000"> 	  		<path id="_D6ABCB77-73F2-4DF1-86B2-546D9519CD13frame2" d="M 0 1 L 15 6 L 0 11z" fill="#000000" stroke="#000000" stroke-linejoin="round" stroke-width="2"/> 	  	</marker><marker id="_4B5E7838-EEEB-40C4-9D8B-38D3C600524Fstart" refX="1" refY="5" markerUnits="userSpaceOnUse" markerWidth="17" markerHeight="11" orient="auto" fill="#000000" stroke="#000000"> 	  		<path id="_4B5E7838-EEEB-40C4-9D8B-38D3C600524Fconditional" d="M 0 5 L 8 0 L 16 5 L 8 10 L 0 5" fill="white" stroke="#000000" stroke-width="1" display="none"/> 			<path id="_4B5E7838-EEEB-40C4-9D8B-38D3C600524Fdefault" d="M 5 0 L 11 10" fill="white" stroke="#000000" stroke-width="1" display="none"/> 	  	</marker><marker id="_4B5E7838-EEEB-40C4-9D8B-38D3C600524Fend" refX="15" refY="6" markerUnits="userSpaceOnUse" markerWidth="15" markerHeight="12" orient="auto" fill="#000000" stroke="#000000"> 	  		<path id="_4B5E7838-EEEB-40C4-9D8B-38D3C600524Fframe2" d="M 0 1 L 15 6 L 0 11z" fill="#000000" stroke="#000000" stroke-linejoin="round" stroke-width="2"/> 	  	</marker><marker id="_564DE1B2-85D2-45AA-A8CA-0B09F58AC773start" refX="1" refY="5" markerUnits="userSpaceOnUse" markerWidth="17" markerHeight="11" orient="auto" fill="#000000" stroke="#000000"> 	  		<path id="_564DE1B2-85D2-45AA-A8CA-0B09F58AC773conditional" d="M 0 5 L 8 0 L 16 5 L 8 10 L 0 5" fill="white" stroke="#000000" stroke-width="1" display="none"/> 			<path id="_564DE1B2-85D2-45AA-A8CA-0B09F58AC773default" d="M 5 0 L 11 10" fill="white" stroke="#000000" stroke-width="1" display="none"/> 	  	</marker><marker id="_564DE1B2-85D2-45AA-A8CA-0B09F58AC773end" refX="15" refY="6" markerUnits="userSpaceOnUse" markerWidth="15" markerHeight="12" orient="auto" fill="#000000" stroke="#000000"> 	  		<path id="_564DE1B2-85D2-45AA-A8CA-0B09F58AC773frame2" d="M 0 1 L 15 6 L 0 11z" fill="#000000" stroke="#000000" stroke-linejoin="round" stroke-width="2"/> 	  	</marker><marker id="_D20BD22C-874D-4A1F-9AF1-168568E7A097start" refX="1" refY="5" markerUnits="userSpaceOnUse" markerWidth="17" markerHeight="11" orient="auto" fill="#000000" stroke="#000000"> 	  		<path id="_D20BD22C-874D-4A1F-9AF1-168568E7A097conditional" d="M 0 5 L 8 0 L 16 5 L 8 10 L 0 5" fill="white" stroke="#000000" stroke-width="1" display="none"/> 			<path id="_D20BD22C-874D-4A1F-9AF1-168568E7A097default" d="M 5 0 L 11 10" fill="white" stroke="#000000" stroke-width="1" display="none"/> 	  	</marker><marker id="_D20BD22C-874D-4A1F-9AF1-168568E7A097end" refX="15" refY="6" markerUnits="userSpaceOnUse" markerWidth="15" markerHeight="12" orient="auto" fill="#000000" stroke="#000000"> 	  		<path id="_D20BD22C-874D-4A1F-9AF1-168568E7A097frame2" d="M 0 1 L 15 6 L 0 11z" fill="#000000" stroke="#000000" stroke-linejoin="round" stroke-width="2"/> 	  	</marker><marker id="_44BD7D35-A3A7-4DC4-8288-7EE2750A6554start" refX="1" refY="5" markerUnits="userSpaceOnUse" markerWidth="17" markerHeight="11" orient="auto" fill="#000000" stroke="#000000"> 	  		<path id="_44BD7D35-A3A7-4DC4-8288-7EE2750A6554conditional" d="M 0 5 L 8 0 L 16 5 L 8 10 L 0 5" fill="white" stroke="#000000" stroke-width="1" display="none"/> 			<path id="_44BD7D35-A3A7-4DC4-8288-7EE2750A6554default" d="M 5 0 L 11 10" fill="white" stroke="#000000" stroke-width="1" display="none"/> 	  	</marker><marker id="_44BD7D35-A3A7-4DC4-8288-7EE2750A6554end" refX="15" refY="6" markerUnits="userSpaceOnUse" markerWidth="15" markerHeight="12" orient="auto" fill="#000000" stroke="#000000"> 	  		<path id="_44BD7D35-A3A7-4DC4-8288-7EE2750A6554frame2" d="M 0 1 L 15 6 L 0 11z" fill="#000000" stroke="#000000" stroke-linejoin="round" stroke-width="2"/> 	  	</marker></defs><g stroke="none" font-family="Verdana, sans-serif" font-size-adjust="none" font-style="normal" font-variant="normal" font-weight="normal" line-heigth="normal" font-size="12"><g class="stencils" transform="translate(16, 16)"><g class="me"/><g class="children"><g id="_3F26741F-498C-4E99-A47B-2A701D6444AC" bpmn2nodeid="processStartEvent"><g class="stencils" transform="translate(45, 150)"><g class="me"><g pointer-events="fill" id="_3F26741F-498C-4E99-A47B-2A701D6444AC">        <defs id="_3F26741F-498C-4E99-A47B-2A701D6444AC__3F26741F-498C-4E99-A47B-2A701D6444AC_5"> 		<radialGradient id="_3F26741F-498C-4E99-A47B-2A701D6444ACbackground" cx="10%" cy="10%" r="100%" fx="10%" fy="10%"> 			<stop offset="0%" stop-color="#ffffff" stop-opacity="1" id="_3F26741F-498C-4E99-A47B-2A701D6444AC__3F26741F-498C-4E99-A47B-2A701D6444AC_6"/> 			<stop id="_3F26741F-498C-4E99-A47B-2A701D6444ACfill_el" offset="100%" stop-color="#9acd32" stop-opacity="1"/> 		</radialGradient> 	</defs> 	     <circle id="_3F26741F-498C-4E99-A47B-2A701D6444ACbg_frame" cx="15" cy="15" r="15" stroke="#000000" fill="url(#_3F26741F-498C-4E99-A47B-2A701D6444ACbackground) white" stroke-width="1" style="stroke-dasharray: 5.5, 3"/>      <circle id="_3F26741F-498C-4E99-A47B-2A701D6444ACframe" cx="15" cy="15" r="15" stroke="#000000" fill="none" stroke-width="1" display="inherit"/>  	<text font-size="11" id="_3F26741F-498C-4E99-A47B-2A701D6444ACtext_name" x="15" y="32" oryx:align="top center" stroke="black" stroke-width="0pt" letter-spacing="-0.01px" fill="#000000" text-anchor="middle" transform="rotate(0 15 32)" visibility="inherit" oryx:fontSize="11"/>   </g></g><g class="children" style="overflow:hidden"/><g class="edge"/></g><g class="controls"><g class="dockers"/><g class="magnets" transform="translate(45, 150)"><g pointer-events="all" display="none" transform="translate(7, 7)"><circle cx="8" cy="8" r="4" stroke="none" fill="red" fill-opacity="0.3"/></g></g></g></g><g id="_44798DC5-B7DB-424B-8D15-E65D2C5757CC" bpmn2nodeid="_C43DC839-B400-4A49-B331-AD166219A3B5"><g class="stencils" transform="translate(425, 125)"><g class="me"><g pointer-events="fill" oryx:minimumSize="50 40" id="_44798DC5-B7DB-424B-8D15-E65D2C5757CC">   	<defs id="_44798DC5-B7DB-424B-8D15-E65D2C5757CC__44798DC5-B7DB-424B-8D15-E65D2C5757CC_17"> 		<radialGradient id="_44798DC5-B7DB-424B-8D15-E65D2C5757CCbackground" cx="10%" cy="10%" r="100%" fx="10%" fy="10%"> 			<stop offset="0%" stop-color="#ffffff" stop-opacity="1" id="_44798DC5-B7DB-424B-8D15-E65D2C5757CC__44798DC5-B7DB-424B-8D15-E65D2C5757CC_18"/> 			<stop id="_44798DC5-B7DB-424B-8D15-E65D2C5757CCfill_el" offset="100%" stop-color="#fafad2" stop-opacity="1"/> 		</radialGradient> 		<radialGradient id="_44798DC5-B7DB-424B-8D15-E65D2C5757CCborderbackground" cx="10%" cy="10%" r="100%" fx="10%" fy="10%"> 			<stop offset="0%" stop-color="#ffffff" stop-opacity="1" id="_44798DC5-B7DB-424B-8D15-E65D2C5757CC__44798DC5-B7DB-424B-8D15-E65D2C5757CC_19"/> 			<stop id="_44798DC5-B7DB-424B-8D15-E65D2C5757CCfill_border" offset="100%" stop-color="#000000" stop-opacity="1" stroke="#000000"/> 		</radialGradient> 	</defs> 	 	<rect id="_44798DC5-B7DB-424B-8D15-E65D2C5757CCtext_frame" oryx:anchors="bottom top right left" x="1" y="1" width="94" height="79" rx="10" ry="10" stroke="none" stroke-width="0" fill="none"/> 	<rect id="_44798DC5-B7DB-424B-8D15-E65D2C5757CCbg_frame" oryx:resize="vertical horizontal" x="0" y="0" width="100" height="80" rx="10" ry="10" stroke="#000000" stroke-width="1" fill="url(#_44798DC5-B7DB-424B-8D15-E65D2C5757CCbackground) #ffffcc"/> 		<text font-size="12" id="_44798DC5-B7DB-424B-8D15-E65D2C5757CCtext_name" x="50" y="40" oryx:align="middle center" oryx:fittoelem="text_frame" stroke="black" text-anchor="middle" stroke-width="0pt" letter-spacing="-0.01px" fill="#000000" transform="rotate(0 50 40)" visibility="inherit" oryx:fontSize="12"><tspan x="50" y="40" dy="5" id="ext-gen608">CyclicTask</tspan></text>     <g id="_44798DC5-B7DB-424B-8D15-E65D2C5757CCmanualTask" transform="scale(0.7,0.7) translate(8,8)" display="none">     	<path oryx:anchors="top left" id="_44798DC5-B7DB-424B-8D15-E65D2C5757CCframe" style="opacity:1;fill:none;fill-opacity:1;stroke-width:1" d="M0.5,3.751l4.083-3.25c0,0,11.166,0.083,12.083,0.083s-2.417,2.917-1.5,2.917     s11.667,0,12.584,0c1.166,1.708-0.168,3.167-0.834,3.667s0.875,1.917-1,4.417c-0.75,0.25,0.75,1.875-1.333,3.333     c-1.167,0.583,0.583,1.542-1.25,2.833c-1.167,0-20.833,0.083-20.833,0.083l-2-1.333V3.751z" stroke="#000000"/> 		<path id="_44798DC5-B7DB-424B-8D15-E65D2C5757CCframe2" oryx:anchors="top left" style="opacity:1;fill:none;stroke-width:2" d="M 13.5 7 L 27 7" stroke="#000000"/> 		<path id="_44798DC5-B7DB-424B-8D15-E65D2C5757CCframe3" oryx:anchors="top left" style="opacity:1;fill:none;stroke-width:2" d="M 13.5 11 L 26 11" stroke="#000000"/> 		<path id="_44798DC5-B7DB-424B-8D15-E65D2C5757CCframe4" oryx:anchors="top left" style="opacity:1;fill:none;stroke-width:1.5" d="M 14 14.5 L 25 14.5" stroke="#000000"/> 		<path id="_44798DC5-B7DB-424B-8D15-E65D2C5757CCframe5" oryx:anchors="top left" style="opacity:1;fill:none;stroke-width:1.5" d="M 8.2 3.1 L 15 3.1" stroke="#000000"/> 	</g> 	 	<g id="_44798DC5-B7DB-424B-8D15-E65D2C5757CCbusinessRuleTask" transform="scale(0.7,0.7) translate(8,8)" display="none"> 		<rect id="_44798DC5-B7DB-424B-8D15-E65D2C5757CCframe6" oryx:anchors="top left" x="0" y="0" width="22" height="4" style="opacity:1;fill:#B3B1B3;fill-opacity:1;" stroke="#000000"/> 		<rect id="_44798DC5-B7DB-424B-8D15-E65D2C5757CCframe7" oryx:anchors="top left" x="0" y="4" style="opacity:1;fill:none;" width="22" height="12" stroke="#000000"/> 		<path id="_44798DC5-B7DB-424B-8D15-E65D2C5757CCframe8" oryx:anchors="top left" style="opacity:1;fill:none;" d="M 0 10 L 22 10" stroke="#000000"/> 		<path id="_44798DC5-B7DB-424B-8D15-E65D2C5757CCframe9" oryx:anchors="top left" style="opacity:1; fill:none;" d="M 7 4 L 7 16" stroke="#000000"/> 	</g> 	 	<g id="_44798DC5-B7DB-424B-8D15-E65D2C5757CCscriptTask" transform="scale(0.7,0.7) translate(8,8)" display="none"> 		<path oryx:anchors="top left" id="_44798DC5-B7DB-424B-8D15-E65D2C5757CCframe10" style="opacity:1;fill:none;" stroke="#000000" d="M6.402,0.5h14.5c0,0-5.833,2.833-5.833,5.583s4.417,6,4.417,9.167    s-4.167,5.083-4.167,5.083H0.235c0,0,5-2.667,5-5s-4.583-6.75-4.583-9.25S6.402,0.5,6.402,0.5z"/> 		<path oryx:anchors="top left" id="_44798DC5-B7DB-424B-8D15-E65D2C5757CCframe11" style="opacity:1;fill:none;stroke-width:1.5" d="M 3.5 4.5 L 13.5 4.5" stroke="#000000"/> 		<path oryx:anchors="top left" id="_44798DC5-B7DB-424B-8D15-E65D2C5757CCframe12" style="opacity:1;fill:none;stroke-width:1.5" d="M 3.8 8.5 L 13.8 8.5" stroke="#000000"/> 		<path oryx:anchors="top left" id="_44798DC5-B7DB-424B-8D15-E65D2C5757CCframe13" style="opacity:1;fill:none;stroke-width:1.5" d="M 6.3 12.5 L 16.3 12.5" stroke="#000000"/> 		<path oryx:anchors="top left" id="_44798DC5-B7DB-424B-8D15-E65D2C5757CCframe14" style="opacity:1;fill:none;stroke-width:1.5" d="M 6.5 16.5 L 16.5 16.5" stroke="#000000"/> 	</g> 	 	<g id="_44798DC5-B7DB-424B-8D15-E65D2C5757CCuserTask" transform="scale(0.7,0.7) translate(8,8)" display="inherit"> 		<path id="_44798DC5-B7DB-424B-8D15-E65D2C5757CCframe15" oryx:anchors="top left" style="opacity:1;fill:#F4F6F7" stroke="#000000" d="M0.585,24.167h24.083v-7.833c0,0-2.333-3.917-7.083-5.167h-9.25    c-4.417,1.333-7.833,5.75-7.833,5.75L0.585,24.167z"/> 		<path id="_44798DC5-B7DB-424B-8D15-E65D2C5757CCframe16" oryx:anchors="top left" style="opacity:1;fill:none" d="M 6 20 L 6 24" stroke="#000000"/> 		<path id="_44798DC5-B7DB-424B-8D15-E65D2C5757CCframe17" oryx:anchors="top left" style="opacity:1;fill:none" d="M 20 20 L 20 24" stroke="#000000"/> 		<circle id="_44798DC5-B7DB-424B-8D15-E65D2C5757CCframe18" oryx:anchors="top left" fill="black" cx="13.002" cy="5.916" r="5.417" stroke="#000000"/> 		<path id="_44798DC5-B7DB-424B-8D15-E65D2C5757CCframe19" oryx:anchors="top left" style="opacity:1;fill:#F0EFF0;" stroke="#000000" d="M8.043,7.083c0,0,2.814-2.426,5.376-1.807s4.624-0.693,4.624-0.693    c0.25,1.688,0.042,3.75-1.458,5.584c0,0,1.083,0.75,1.083,1.5s0.125,1.875-1,3s-5.5,1.25-6.75,0S8.668,12.834,8.668,12    s0.583-1.25,1.25-1.917C8.835,9.5,7.419,7.708,8.043,7.083z"/> 	</g> 	 	<g id="_44798DC5-B7DB-424B-8D15-E65D2C5757CCserviceTask" transform="scale(0.7,0.7) translate(8,8)" display="none"> 		<polygon oryx:anchors="top left" id="_44798DC5-B7DB-424B-8D15-E65D2C5757CCframe20" style="opacity:1;fill:#ffffff" stroke="#000000" points="15.392,5.064 17.954,2.502 20.347,4.895 17.786,7.455     18.729,9.732 22.353,9.732 22.353,13.115 18.731,13.115 17.788,15.392 20.351,17.955 17.958,20.347 15.397,17.786 13.12,18.729     13.12,22.353 9.737,22.353 9.737,18.731 7.46,17.788 4.897,20.35 2.506,17.958 5.066,15.397 4.124,13.12 0.5,13.12 0.5,9.737     4.121,9.737 5.065,7.461 2.503,4.898 4.895,2.506 7.455,5.066 9.732,4.125 9.732,0.5 13.116,0.5 13.116,4.121 "/> 		<circle oryx:anchors="top left" id="_44798DC5-B7DB-424B-8D15-E65D2C5757CCframe21" style="opacity:1;fill:none" stroke="#000000" cx="11.427" cy="11.426" r="3.714"/> 		<polygon oryx:anchors="top left" id="_44798DC5-B7DB-424B-8D15-E65D2C5757CCframe22" style="opacity:1;fill:#ffffff" stroke="#000000" points="21.392,11.064 23.954,8.502 26.347,10.895 23.786,13.455     24.729,15.732 28.353,15.732 28.353,19.115 24.731,19.115 23.788,21.392 26.351,23.955 23.958,26.347 21.397,23.786 19.12,24.729     19.12,28.353 15.737,28.353 15.737,24.731 13.46,23.788 10.897,26.35 8.506,23.958 11.066,21.397 10.124,19.12 6.5,19.12     6.5,15.737 10.121,15.737 11.065,13.461 8.503,10.898 10.895,8.506 13.455,11.066 15.732,10.125 15.732,6.5 19.116,6.5     19.116,10.121 "/> 		<circle oryx:anchors="top left" id="_44798DC5-B7DB-424B-8D15-E65D2C5757CCframe23" style="opacity:1;fill:none;" stroke="#000000" cx="17.427" cy="17.426" r="3.714"/> 	</g> 	 	<g id="_44798DC5-B7DB-424B-8D15-E65D2C5757CCsendTask" display="none"> 		<path id="_44798DC5-B7DB-424B-8D15-E65D2C5757CCstframe24" oryx:anchors="left top" stroke="#FFFFFF" fill="black" stroke-width="1" d="M8,11 L8,21 L24,21 L24,11 L16,17z"/> 		<path id="_44798DC5-B7DB-424B-8D15-E65D2C5757CCstframe25" oryx:anchors="left top" stroke="#FFFFFF" fill="black" stroke-width="1" d="M7,10 L16,17 L25 10z"/> 	</g> 	 	<g id="_44798DC5-B7DB-424B-8D15-E65D2C5757CCreceiveTask" display="none"> 		<path id="_44798DC5-B7DB-424B-8D15-E65D2C5757CCframe26" oryx:anchors="left top" stroke="#000000" fill="none" stroke-width="1" d="M8,11 L8,21 L24,21 L24,11z M8,11 L16,17 L24,11"/> 	</g> 	 	<g id="_44798DC5-B7DB-424B-8D15-E65D2C5757CCnone" display="inherit"/>  	<g id="_44798DC5-B7DB-424B-8D15-E65D2C5757CCsequential" display="none">         <path oryx:anchors="bottom" fill="none" stroke="#000000" stroke-width="2" d="M46,76h10M46,72h10 M46,68h10" id="_44798DC5-B7DB-424B-8D15-E65D2C5757CC__44798DC5-B7DB-424B-8D15-E65D2C5757CC_20"/>     </g>   </g></g><g class="children" style="overflow:hidden"/><g class="edge"/></g><g class="controls"><g class="dockers"/><g class="magnets" transform="translate(425, 125)"><g pointer-events="all" display="none" transform="translate(-7, 12)"><circle cx="8" cy="8" r="4" stroke="none" fill="red" fill-opacity="0.3"/></g><g pointer-events="all" display="none" transform="translate(-7, 32)"><circle cx="8" cy="8" r="4" stroke="none" fill="red" fill-opacity="0.3"/></g><g pointer-events="all" display="none" transform="translate(-7, 52)"><circle cx="8" cy="8" r="4" stroke="none" fill="red" fill-opacity="0.3"/></g><g pointer-events="all" display="none" transform="translate(17, 71)"><circle cx="8" cy="8" r="4" stroke="none" fill="red" fill-opacity="0.3"/></g><g pointer-events="all" display="none" transform="translate(42, 71)"><circle cx="8" cy="8" r="4" stroke="none" fill="red" fill-opacity="0.3"/></g><g pointer-events="all" display="none" transform="translate(67, 71)"><circle cx="8" cy="8" r="4" stroke="none" fill="red" fill-opacity="0.3"/></g><g pointer-events="all" display="none" transform="translate(91, 12)"><circle cx="8" cy="8" r="4" stroke="none" fill="red" fill-opacity="0.3"/></g><g pointer-events="all" display="none" transform="translate(91, 32)"><circle cx="8" cy="8" r="4" stroke="none" fill="red" fill-opacity="0.3"/></g><g pointer-events="all" display="none" transform="translate(91, 52)"><circle cx="8" cy="8" r="4" stroke="none" fill="red" fill-opacity="0.3"/></g><g pointer-events="all" display="none" transform="translate(17, -7)"><circle cx="8" cy="8" r="4" stroke="none" fill="red" fill-opacity="0.3"/></g><g pointer-events="all" display="none" transform="translate(42, -7)"><circle cx="8" cy="8" r="4" stroke="none" fill="red" fill-opacity="0.3"/></g><g pointer-events="all" display="none" transform="translate(67, -7)"><circle cx="8" cy="8" r="4" stroke="none" fill="red" fill-opacity="0.3"/></g><g pointer-events="all" display="none" transform="translate(42, 32)"><circle cx="8" cy="8" r="4" stroke="none" fill="red" fill-opacity="0.3"/></g></g></g></g><g id="_6A8BE908-3783-4E39-AC27-91A5ACAFC76F" bpmn2nodeid="_64B771CA-49E0-45C4-93B4-6D69A2106819"><g class="stencils" transform="translate(570, 145)"><g class="me"><g id="_6A8BE908-3783-4E39-AC27-91A5ACAFC76F">        <defs id="_6A8BE908-3783-4E39-AC27-91A5ACAFC76F__6A8BE908-3783-4E39-AC27-91A5ACAFC76F_4"> 		<radialGradient id="_6A8BE908-3783-4E39-AC27-91A5ACAFC76Fbackground" cx="10%" cy="10%" r="100%" fx="10%" fy="10%"> 			<stop offset="0%" stop-color="#ffffff" stop-opacity="1" id="_6A8BE908-3783-4E39-AC27-91A5ACAFC76F__6A8BE908-3783-4E39-AC27-91A5ACAFC76F_5"/> 			<stop id="_6A8BE908-3783-4E39-AC27-91A5ACAFC76Ffill_el" offset="100%" stop-color="#f0e68c" stop-opacity="1"/> 		</radialGradient> 		<radialGradient id="_6A8BE908-3783-4E39-AC27-91A5ACAFC76Fborderbackground" cx="10%" cy="10%" r="100%" fx="10%" fy="10%"> 			<stop offset="0%" stop-color="#ffffff" stop-opacity="1" id="_6A8BE908-3783-4E39-AC27-91A5ACAFC76F__6A8BE908-3783-4E39-AC27-91A5ACAFC76F_6"/> 			<stop id="_6A8BE908-3783-4E39-AC27-91A5ACAFC76Ffill_border" offset="100%" stop-color="#a67f00" stop-opacity="1" stroke="#a67f00"/> 		</radialGradient> 	</defs> 	     <path d=" M0 20.5  L20.5 0  L40 20.5  L20.5 40  z" id="_6A8BE908-3783-4E39-AC27-91A5ACAFC76Fbg_frame" fill="url(#_6A8BE908-3783-4E39-AC27-91A5ACAFC76Fbackground) white" style="stroke-width:1" stroke="#a67f00"/>     <g id="_6A8BE908-3783-4E39-AC27-91A5ACAFC76Fframe" stroke="#a67f00">       <path id="_6A8BE908-3783-4E39-AC27-91A5ACAFC76Fframe2" d=" M13.25 12.05  L17.25 12.05  L27.65 28.95  L23.75 28.95  z" style="stroke-width:1" stroke="#a67f00" fill="url(#_6A8BE908-3783-4E39-AC27-91A5ACAFC76Fborderbackground)"/>       <path id="_6A8BE908-3783-4E39-AC27-91A5ACAFC76Fframe3" d=" M13.25 28.95  L23.75 12.05  L27.65 12.05  L17.25 28.95  z" style="stroke-width:1" stroke="#a67f00" fill="url(#_6A8BE908-3783-4E39-AC27-91A5ACAFC76Fborderbackground)"/>     </g> 	 	<text id="_6A8BE908-3783-4E39-AC27-91A5ACAFC76Ftext_name" x="30.5" y="30.5" oryx:align="left top" stroke-width="0pt" letter-spacing="-0.01px" fill="#000000" text-anchor="start" transform="rotate(0 30.5 30.5)" visibility="inherit" oryx:fontSize="12"/> 	   </g></g><g class="children" style="overflow:hidden"/><g class="edge"/></g><g class="controls"><g class="dockers"/><g class="magnets" transform="translate(570, 145)"><g pointer-events="all" display="none" transform="translate(12.5, 12.5)"><circle cx="8" cy="8" r="4" stroke="none" fill="red" fill-opacity="0.3"/></g></g></g></g><g id="_BB4DE8B0-4EBA-47EF-93F4-B9E466D2D4AC" bpmn2nodeid="_77B29B5F-CACF-4EFD-ABE9-6D5DFFD73F0C"><g class="stencils" transform="translate(655, 151)"><g class="me"><g pointer-events="fill" id="_BB4DE8B0-4EBA-47EF-93F4-B9E466D2D4AC">      <defs id="_BB4DE8B0-4EBA-47EF-93F4-B9E466D2D4AC__BB4DE8B0-4EBA-47EF-93F4-B9E466D2D4AC_5"> 		<radialGradient id="_BB4DE8B0-4EBA-47EF-93F4-B9E466D2D4ACbackground" cx="10%" cy="10%" r="100%" fx="10%" fy="10%"> 			<stop offset="0%" stop-color="#ffffff" stop-opacity="1" id="_BB4DE8B0-4EBA-47EF-93F4-B9E466D2D4AC__BB4DE8B0-4EBA-47EF-93F4-B9E466D2D4AC_6"/> 			<stop id="_BB4DE8B0-4EBA-47EF-93F4-B9E466D2D4ACfill_el" offset="100%" stop-color="#ff6347" stop-opacity="1"/> 		</radialGradient> 	</defs> 	     <circle id="_BB4DE8B0-4EBA-47EF-93F4-B9E466D2D4ACbg_frame" cx="14" cy="14" r="14" stroke="#000000" fill="url(#_BB4DE8B0-4EBA-47EF-93F4-B9E466D2D4ACbackground) white" stroke-width="3"/> 	<text font-size="11" id="_BB4DE8B0-4EBA-47EF-93F4-B9E466D2D4ACtext_name" x="14" y="30" oryx:align="top center" stroke="black" stroke-width="0pt" letter-spacing="-0.01px" fill="#000000" text-anchor="middle" transform="rotate(0 14 30)" visibility="inherit" oryx:fontSize="11"/>   </g></g><g class="children" style="overflow:hidden"/><g class="edge"/></g><g class="controls"><g class="dockers"/><g class="magnets" transform="translate(655, 151)"><g pointer-events="all" display="none" transform="translate(6, 6)"><circle cx="8" cy="8" r="4" stroke="none" fill="red" fill-opacity="0.3"/></g></g></g></g><g id="_79E3F4D3-1BDF-431E-AF63-10E5C2F9A545" bpmn2nodeid="_4008507C-AD73-4B4E-94CF-BD21FF6EFC13"><g class="stencils" transform="translate(425, 285)"><g class="me"><g pointer-events="fill" oryx:minimumSize="50 40" id="_79E3F4D3-1BDF-431E-AF63-10E5C2F9A545">   	<defs id="_79E3F4D3-1BDF-431E-AF63-10E5C2F9A545__79E3F4D3-1BDF-431E-AF63-10E5C2F9A545_17"> 		<radialGradient id="_79E3F4D3-1BDF-431E-AF63-10E5C2F9A545background" cx="10%" cy="10%" r="100%" fx="10%" fy="10%"> 			<stop offset="0%" stop-color="#ffffff" stop-opacity="1" id="_79E3F4D3-1BDF-431E-AF63-10E5C2F9A545__79E3F4D3-1BDF-431E-AF63-10E5C2F9A545_18"/> 			<stop id="_79E3F4D3-1BDF-431E-AF63-10E5C2F9A545fill_el" offset="100%" stop-color="#fafad2" stop-opacity="1"/> 		</radialGradient> 		<radialGradient id="_79E3F4D3-1BDF-431E-AF63-10E5C2F9A545borderbackground" cx="10%" cy="10%" r="100%" fx="10%" fy="10%"> 			<stop offset="0%" stop-color="#ffffff" stop-opacity="1" id="_79E3F4D3-1BDF-431E-AF63-10E5C2F9A545__79E3F4D3-1BDF-431E-AF63-10E5C2F9A545_19"/> 			<stop id="_79E3F4D3-1BDF-431E-AF63-10E5C2F9A545fill_border" offset="100%" stop-color="#000000" stop-opacity="1" stroke="#000000"/> 		</radialGradient> 	</defs> 	 	<rect id="_79E3F4D3-1BDF-431E-AF63-10E5C2F9A545text_frame" oryx:anchors="bottom top right left" x="1" y="1" width="94" height="79" rx="10" ry="10" stroke="none" stroke-width="0" fill="none"/> 	<rect id="_79E3F4D3-1BDF-431E-AF63-10E5C2F9A545bg_frame" oryx:resize="vertical horizontal" x="0" y="0" width="100" height="80" rx="10" ry="10" stroke="#000000" stroke-width="1" fill="url(#_79E3F4D3-1BDF-431E-AF63-10E5C2F9A545background) #ffffcc"/> 		<text font-size="12" id="_79E3F4D3-1BDF-431E-AF63-10E5C2F9A545text_name" x="50" y="40" oryx:align="middle center" oryx:fittoelem="text_frame" stroke="black" text-anchor="middle" stroke-width="0pt" letter-spacing="-0.01px" fill="#000000" transform="rotate(0 50 40)" visibility="inherit" oryx:fontSize="12"><tspan x="50" y="40" dy="5">Script3</tspan></text>     <g id="_79E3F4D3-1BDF-431E-AF63-10E5C2F9A545manualTask" transform="scale(0.7,0.7) translate(8,8)" display="none">     	<path oryx:anchors="top left" id="_79E3F4D3-1BDF-431E-AF63-10E5C2F9A545frame" style="opacity:1;fill:none;fill-opacity:1;stroke-width:1" d="M0.5,3.751l4.083-3.25c0,0,11.166,0.083,12.083,0.083s-2.417,2.917-1.5,2.917     s11.667,0,12.584,0c1.166,1.708-0.168,3.167-0.834,3.667s0.875,1.917-1,4.417c-0.75,0.25,0.75,1.875-1.333,3.333     c-1.167,0.583,0.583,1.542-1.25,2.833c-1.167,0-20.833,0.083-20.833,0.083l-2-1.333V3.751z" stroke="#000000"/> 		<path id="_79E3F4D3-1BDF-431E-AF63-10E5C2F9A545frame2" oryx:anchors="top left" style="opacity:1;fill:none;stroke-width:2" d="M 13.5 7 L 27 7" stroke="#000000"/> 		<path id="_79E3F4D3-1BDF-431E-AF63-10E5C2F9A545frame3" oryx:anchors="top left" style="opacity:1;fill:none;stroke-width:2" d="M 13.5 11 L 26 11" stroke="#000000"/> 		<path id="_79E3F4D3-1BDF-431E-AF63-10E5C2F9A545frame4" oryx:anchors="top left" style="opacity:1;fill:none;stroke-width:1.5" d="M 14 14.5 L 25 14.5" stroke="#000000"/> 		<path id="_79E3F4D3-1BDF-431E-AF63-10E5C2F9A545frame5" oryx:anchors="top left" style="opacity:1;fill:none;stroke-width:1.5" d="M 8.2 3.1 L 15 3.1" stroke="#000000"/> 	</g> 	 	<g id="_79E3F4D3-1BDF-431E-AF63-10E5C2F9A545businessRuleTask" transform="scale(0.7,0.7) translate(8,8)" display="none"> 		<rect id="_79E3F4D3-1BDF-431E-AF63-10E5C2F9A545frame6" oryx:anchors="top left" x="0" y="0" width="22" height="4" style="opacity:1;fill:#B3B1B3;fill-opacity:1;" stroke="#000000"/> 		<rect id="_79E3F4D3-1BDF-431E-AF63-10E5C2F9A545frame7" oryx:anchors="top left" x="0" y="4" style="opacity:1;fill:none;" width="22" height="12" stroke="#000000"/> 		<path id="_79E3F4D3-1BDF-431E-AF63-10E5C2F9A545frame8" oryx:anchors="top left" style="opacity:1;fill:none;" d="M 0 10 L 22 10" stroke="#000000"/> 		<path id="_79E3F4D3-1BDF-431E-AF63-10E5C2F9A545frame9" oryx:anchors="top left" style="opacity:1; fill:none;" d="M 7 4 L 7 16" stroke="#000000"/> 	</g> 	 	<g id="_79E3F4D3-1BDF-431E-AF63-10E5C2F9A545scriptTask" transform="scale(0.7,0.7) translate(8,8)" display="inherit"> 		<path oryx:anchors="top left" id="_79E3F4D3-1BDF-431E-AF63-10E5C2F9A545frame10" style="opacity:1;fill:none;" stroke="#000000" d="M6.402,0.5h14.5c0,0-5.833,2.833-5.833,5.583s4.417,6,4.417,9.167    s-4.167,5.083-4.167,5.083H0.235c0,0,5-2.667,5-5s-4.583-6.75-4.583-9.25S6.402,0.5,6.402,0.5z"/> 		<path oryx:anchors="top left" id="_79E3F4D3-1BDF-431E-AF63-10E5C2F9A545frame11" style="opacity:1;fill:none;stroke-width:1.5" d="M 3.5 4.5 L 13.5 4.5" stroke="#000000"/> 		<path oryx:anchors="top left" id="_79E3F4D3-1BDF-431E-AF63-10E5C2F9A545frame12" style="opacity:1;fill:none;stroke-width:1.5" d="M 3.8 8.5 L 13.8 8.5" stroke="#000000"/> 		<path oryx:anchors="top left" id="_79E3F4D3-1BDF-431E-AF63-10E5C2F9A545frame13" style="opacity:1;fill:none;stroke-width:1.5" d="M 6.3 12.5 L 16.3 12.5" stroke="#000000"/> 		<path oryx:anchors="top left" id="_79E3F4D3-1BDF-431E-AF63-10E5C2F9A545frame14" style="opacity:1;fill:none;stroke-width:1.5" d="M 6.5 16.5 L 16.5 16.5" stroke="#000000"/> 	</g> 	 	<g id="_79E3F4D3-1BDF-431E-AF63-10E5C2F9A545userTask" transform="scale(0.7,0.7) translate(8,8)" display="none"> 		<path id="_79E3F4D3-1BDF-431E-AF63-10E5C2F9A545frame15" oryx:anchors="top left" style="opacity:1;fill:#F4F6F7" stroke="#000000" d="M0.585,24.167h24.083v-7.833c0,0-2.333-3.917-7.083-5.167h-9.25    c-4.417,1.333-7.833,5.75-7.833,5.75L0.585,24.167z"/> 		<path id="_79E3F4D3-1BDF-431E-AF63-10E5C2F9A545frame16" oryx:anchors="top left" style="opacity:1;fill:none" d="M 6 20 L 6 24" stroke="#000000"/> 		<path id="_79E3F4D3-1BDF-431E-AF63-10E5C2F9A545frame17" oryx:anchors="top left" style="opacity:1;fill:none" d="M 20 20 L 20 24" stroke="#000000"/> 		<circle id="_79E3F4D3-1BDF-431E-AF63-10E5C2F9A545frame18" oryx:anchors="top left" fill="black" cx="13.002" cy="5.916" r="5.417" stroke="#000000"/> 		<path id="_79E3F4D3-1BDF-431E-AF63-10E5C2F9A545frame19" oryx:anchors="top left" style="opacity:1;fill:#F0EFF0;" stroke="#000000" d="M8.043,7.083c0,0,2.814-2.426,5.376-1.807s4.624-0.693,4.624-0.693    c0.25,1.688,0.042,3.75-1.458,5.584c0,0,1.083,0.75,1.083,1.5s0.125,1.875-1,3s-5.5,1.25-6.75,0S8.668,12.834,8.668,12    s0.583-1.25,1.25-1.917C8.835,9.5,7.419,7.708,8.043,7.083z"/> 	</g> 	 	<g id="_79E3F4D3-1BDF-431E-AF63-10E5C2F9A545serviceTask" transform="scale(0.7,0.7) translate(8,8)" display="none"> 		<polygon oryx:anchors="top left" id="_79E3F4D3-1BDF-431E-AF63-10E5C2F9A545frame20" style="opacity:1;fill:#ffffff" stroke="#000000" points="15.392,5.064 17.954,2.502 20.347,4.895 17.786,7.455     18.729,9.732 22.353,9.732 22.353,13.115 18.731,13.115 17.788,15.392 20.351,17.955 17.958,20.347 15.397,17.786 13.12,18.729     13.12,22.353 9.737,22.353 9.737,18.731 7.46,17.788 4.897,20.35 2.506,17.958 5.066,15.397 4.124,13.12 0.5,13.12 0.5,9.737     4.121,9.737 5.065,7.461 2.503,4.898 4.895,2.506 7.455,5.066 9.732,4.125 9.732,0.5 13.116,0.5 13.116,4.121 "/> 		<circle oryx:anchors="top left" id="_79E3F4D3-1BDF-431E-AF63-10E5C2F9A545frame21" style="opacity:1;fill:none" stroke="#000000" cx="11.427" cy="11.426" r="3.714"/> 		<polygon oryx:anchors="top left" id="_79E3F4D3-1BDF-431E-AF63-10E5C2F9A545frame22" style="opacity:1;fill:#ffffff" stroke="#000000" points="21.392,11.064 23.954,8.502 26.347,10.895 23.786,13.455     24.729,15.732 28.353,15.732 28.353,19.115 24.731,19.115 23.788,21.392 26.351,23.955 23.958,26.347 21.397,23.786 19.12,24.729     19.12,28.353 15.737,28.353 15.737,24.731 13.46,23.788 10.897,26.35 8.506,23.958 11.066,21.397 10.124,19.12 6.5,19.12     6.5,15.737 10.121,15.737 11.065,13.461 8.503,10.898 10.895,8.506 13.455,11.066 15.732,10.125 15.732,6.5 19.116,6.5     19.116,10.121 "/> 		<circle oryx:anchors="top left" id="_79E3F4D3-1BDF-431E-AF63-10E5C2F9A545frame23" style="opacity:1;fill:none;" stroke="#000000" cx="17.427" cy="17.426" r="3.714"/> 	</g> 	 	<g id="_79E3F4D3-1BDF-431E-AF63-10E5C2F9A545sendTask" display="none"> 		<path id="_79E3F4D3-1BDF-431E-AF63-10E5C2F9A545stframe24" oryx:anchors="left top" stroke="#FFFFFF" fill="black" stroke-width="1" d="M8,11 L8,21 L24,21 L24,11 L16,17z"/> 		<path id="_79E3F4D3-1BDF-431E-AF63-10E5C2F9A545stframe25" oryx:anchors="left top" stroke="#FFFFFF" fill="black" stroke-width="1" d="M7,10 L16,17 L25 10z"/> 	</g> 	 	<g id="_79E3F4D3-1BDF-431E-AF63-10E5C2F9A545receiveTask" display="none"> 		<path id="_79E3F4D3-1BDF-431E-AF63-10E5C2F9A545frame26" oryx:anchors="left top" stroke="#000000" fill="none" stroke-width="1" d="M8,11 L8,21 L24,21 L24,11z M8,11 L16,17 L24,11"/> 	</g> 	 	<g id="_79E3F4D3-1BDF-431E-AF63-10E5C2F9A545none" display="inherit"/>  	<g id="_79E3F4D3-1BDF-431E-AF63-10E5C2F9A545sequential" display="none">         <path oryx:anchors="bottom" fill="none" stroke="#000000" stroke-width="2" d="M46,76h10M46,72h10 M46,68h10" id="_79E3F4D3-1BDF-431E-AF63-10E5C2F9A545__79E3F4D3-1BDF-431E-AF63-10E5C2F9A545_20"/>     </g>   </g></g><g class="children" style="overflow:hidden"/><g class="edge"/></g><g class="controls"><g class="dockers"/><g class="magnets" transform="translate(425, 285)"><g pointer-events="all" display="none" transform="translate(-7, 12)"><circle cx="8" cy="8" r="4" stroke="none" fill="red" fill-opacity="0.3"/></g><g pointer-events="all" display="none" transform="translate(-7, 32)"><circle cx="8" cy="8" r="4" stroke="none" fill="red" fill-opacity="0.3"/></g><g pointer-events="all" display="none" transform="translate(-7, 52)"><circle cx="8" cy="8" r="4" stroke="none" fill="red" fill-opacity="0.3"/></g><g pointer-events="all" display="none" transform="translate(17, 71)"><circle cx="8" cy="8" r="4" stroke="none" fill="red" fill-opacity="0.3"/></g><g pointer-events="all" display="none" transform="translate(42, 71)"><circle cx="8" cy="8" r="4" stroke="none" fill="red" fill-opacity="0.3"/></g><g pointer-events="all" display="none" transform="translate(67, 71)"><circle cx="8" cy="8" r="4" stroke="none" fill="red" fill-opacity="0.3"/></g><g pointer-events="all" display="none" transform="translate(91, 12)"><circle cx="8" cy="8" r="4" stroke="none" fill="red" fill-opacity="0.3"/></g><g pointer-events="all" display="none" transform="translate(91, 32)"><circle cx="8" cy="8" r="4" stroke="none" fill="red" fill-opacity="0.3"/></g><g pointer-events="all" display="none" transform="translate(91, 52)"><circle cx="8" cy="8" r="4" stroke="none" fill="red" fill-opacity="0.3"/></g><g pointer-events="all" display="none" transform="translate(17, -7)"><circle cx="8" cy="8" r="4" stroke="none" fill="red" fill-opacity="0.3"/></g><g pointer-events="all" display="none" transform="translate(42, -7)"><circle cx="8" cy="8" r="4" stroke="none" fill="red" fill-opacity="0.3"/></g><g pointer-events="all" display="none" transform="translate(67, -7)"><circle cx="8" cy="8" r="4" stroke="none" fill="red" fill-opacity="0.3"/></g><g pointer-events="all" display="none" transform="translate(42, 32)"><circle cx="8" cy="8" r="4" stroke="none" fill="red" fill-opacity="0.3"/></g></g></g></g><g id="_D9A85EA0-4C26-4A17-B143-20C47ECBC804" bpmn2nodeid="_F721129B-9466-48B9-9DB4-6EFE3704E4D7"><g class="stencils" transform="translate(180, 145)"><g class="me"><g id="_D9A85EA0-4C26-4A17-B143-20C47ECBC804">        <defs id="_D9A85EA0-4C26-4A17-B143-20C47ECBC804__D9A85EA0-4C26-4A17-B143-20C47ECBC804_4"> 		<radialGradient id="_D9A85EA0-4C26-4A17-B143-20C47ECBC804background" cx="10%" cy="10%" r="100%" fx="10%" fy="10%"> 			<stop offset="0%" stop-color="#ffffff" stop-opacity="1" id="_D9A85EA0-4C26-4A17-B143-20C47ECBC804__D9A85EA0-4C26-4A17-B143-20C47ECBC804_5"/> 			<stop id="_D9A85EA0-4C26-4A17-B143-20C47ECBC804fill_el" offset="100%" stop-color="#f0e68c" stop-opacity="1"/> 		</radialGradient> 		<radialGradient id="_D9A85EA0-4C26-4A17-B143-20C47ECBC804borderbackground" cx="10%" cy="10%" r="100%" fx="10%" fy="10%"> 			<stop offset="0%" stop-color="#ffffff" stop-opacity="1" id="_D9A85EA0-4C26-4A17-B143-20C47ECBC804__D9A85EA0-4C26-4A17-B143-20C47ECBC804_6"/> 			<stop id="_D9A85EA0-4C26-4A17-B143-20C47ECBC804fill_border" offset="100%" stop-color="#a67f00" stop-opacity="1" stroke="#a67f00"/> 		</radialGradient> 	</defs> 	     <path d=" M0 20.5  L20.5 0  L40 20.5  L20.5 40  z" id="_D9A85EA0-4C26-4A17-B143-20C47ECBC804bg_frame" fill="url(#_D9A85EA0-4C26-4A17-B143-20C47ECBC804background) white" style="stroke-width:1" stroke="#a67f00"/>     <g id="_D9A85EA0-4C26-4A17-B143-20C47ECBC804frame" stroke="#a67f00">       <path id="_D9A85EA0-4C26-4A17-B143-20C47ECBC804frame2" d=" M13.25 12.05  L17.25 12.05  L27.65 28.95  L23.75 28.95  z" style="stroke-width:1" stroke="#a67f00" fill="url(#_D9A85EA0-4C26-4A17-B143-20C47ECBC804borderbackground)"/>       <path id="_D9A85EA0-4C26-4A17-B143-20C47ECBC804frame3" d=" M13.25 28.95  L23.75 12.05  L27.65 12.05  L17.25 28.95  z" style="stroke-width:1" stroke="#a67f00" fill="url(#_D9A85EA0-4C26-4A17-B143-20C47ECBC804borderbackground)"/>     </g> 	 	<text id="_D9A85EA0-4C26-4A17-B143-20C47ECBC804text_name" x="30.5" y="30.5" oryx:align="left top" stroke-width="0pt" letter-spacing="-0.01px" fill="#000000" text-anchor="start" transform="rotate(0 30.5 30.5)" visibility="inherit" oryx:fontSize="12"/> 	   </g></g><g class="children" style="overflow:hidden"/><g class="edge"/></g><g class="controls"><g class="dockers"/><g class="magnets" transform="translate(180, 145)"><g pointer-events="all" display="none" transform="translate(12.5, 12.5)"><circle cx="8" cy="8" r="4" stroke="none" fill="red" fill-opacity="0.3"/></g></g></g></g></g><g class="edge"><g id="_5FAF97A5-BC89-49A8-9B50-ECE023D86CD1" bpmn2nodeid="_FDC910FA-65B9-407D-8355-915DEB08A7CE"><g class="stencils"><g class="me"><g pointer-events="painted" bpmn2nodeid="_FE84A0C5-1616-49DC-8482-F8FF2D889BFE"><path id="_5FAF97A5-BC89-49A8-9B50-ECE023D86CD1_1" d="M525.4140625 165L570.1328125 165 " stroke="#000000" fill="none" stroke-width="2" stroke-linecap="round" stroke-linejoin="round" marker-start="url(#_5FAF97A5-BC89-49A8-9B50-ECE023D86CD1start)" marker-end="url(#_5FAF97A5-BC89-49A8-9B50-ECE023D86CD1end)"/></g><text id="_5FAF97A5-BC89-49A8-9B50-ECE023D86CD1text_name" font-size="12" x="539.4140625" y="151" oryx:edgePosition="startTop" stroke-width="0pt" letter-spacing="-0.01px" fill="#000000" text-anchor="start" transform="rotate(360 525.4140625 165)" visibility="inherit" oryx:fontSize="12"/></g><g class="children" style="overflow:hidden"/><g class="edge"/></g><g class="controls"><g class="dockers"/><g class="magnets"/></g></g><g id="_D6ABCB77-73F2-4DF1-86B2-546D9519CD13" bpmn2nodeid="_32954C29-5115-497F-8F64-07C7B6E29C4F"><g class="stencils"><g class="me"><g pointer-events="painted" bpmn2nodeid="_744D4FC5-19D9-4731-92D2-33F5DDBD9184"><path id="_D6ABCB77-73F2-4DF1-86B2-546D9519CD13_1" d="M610.1328125 165L654.421875 165 " stroke="#000000" fill="none" stroke-width="2" stroke-linecap="round" stroke-linejoin="round" marker-start="url(#_D6ABCB77-73F2-4DF1-86B2-546D9519CD13start)" marker-end="url(#_D6ABCB77-73F2-4DF1-86B2-546D9519CD13end)"/></g><text id="_D6ABCB77-73F2-4DF1-86B2-546D9519CD13text_name" font-size="12" x="624.1328125" y="151" oryx:edgePosition="startTop" stroke-width="0pt" letter-spacing="-0.01px" fill="#000000" text-anchor="start" transform="rotate(360 610.1328125 165)" visibility="inherit" oryx:fontSize="12"/></g><g class="children" style="overflow:hidden"/><g class="edge"/></g><g class="controls"><g class="dockers"/><g class="magnets"/></g></g><g id="_4B5E7838-EEEB-40C4-9D8B-38D3C600524F" bpmn2nodeid="_29FFEBDA-7438-4A2A-82C0-50EFFFB9090C"><g class="stencils"><g class="me"><g pointer-events="painted" bpmn2nodeid="_F92AD4E6-5105-43A5-8F7D-4BF21750DCEF"><path id="_4B5E7838-EEEB-40C4-9D8B-38D3C600524F_1" d="M590 184.75L590 325 L525.4140625 325 " stroke="#000000" fill="none" stroke-width="2" stroke-linecap="round" stroke-linejoin="round" marker-start="url(#_4B5E7838-EEEB-40C4-9D8B-38D3C600524Fstart)" marker-end="url(#_4B5E7838-EEEB-40C4-9D8B-38D3C600524Fend)"/></g><text id="_4B5E7838-EEEB-40C4-9D8B-38D3C600524Ftext_name" font-size="12" x="576" y="170.75" oryx:edgePosition="startTop" stroke-width="0pt" letter-spacing="-0.01px" fill="#000000" text-anchor="end" transform="rotate(-90 590 184.75)" visibility="inherit" oryx:fontSize="12"/></g><g class="children" style="overflow:hidden"/><g class="edge"/></g><g class="controls"><g class="dockers"/><g class="magnets"/></g></g><g id="_564DE1B2-85D2-45AA-A8CA-0B09F58AC773" bpmn2nodeid="_6C05E01C-C0EF-413E-9DDD-1EB50B3FA614"><g class="stencils"><g class="me"><g pointer-events="painted" bpmn2nodeid="_D823872E-ED3F-4EDA-8E60-38F87CBEE964"><path id="_564DE1B2-85D2-45AA-A8CA-0B09F58AC773_1" d="M424.5859375 325L200 325 L200 184.75 " stroke="#000000" fill="none" stroke-width="2" stroke-linecap="round" stroke-linejoin="round" marker-start="url(#_564DE1B2-85D2-45AA-A8CA-0B09F58AC773start)" marker-end="url(#_564DE1B2-85D2-45AA-A8CA-0B09F58AC773end)"/></g><text id="_564DE1B2-85D2-45AA-A8CA-0B09F58AC773text_name" font-size="12" x="410.5859375" y="311" oryx:edgePosition="startTop" stroke-width="0pt" letter-spacing="-0.01px" fill="#000000" text-anchor="end" transform="rotate(0 424.5859375 325)" visibility="inherit" oryx:fontSize="12"/></g><g class="children" style="overflow:hidden"/><g class="edge"/></g><g class="controls"><g class="dockers"/><g class="magnets"/></g></g><g id="_D20BD22C-874D-4A1F-9AF1-168568E7A097" bpmn2nodeid="_42D9E172-3868-4AF1-B256-A5679A583A59"><g class="stencils"><g class="me"><g pointer-events="painted" bpmn2nodeid="_1788D38F-3E15-4FA2-8E85-970313B1992C"><path id="_D20BD22C-874D-4A1F-9AF1-168568E7A097_1" d="M75.21875 165L180.40625 165 " stroke="#000000" fill="none" stroke-width="2" stroke-linecap="round" stroke-linejoin="round" marker-start="url(#_D20BD22C-874D-4A1F-9AF1-168568E7A097start)" marker-end="url(#_D20BD22C-874D-4A1F-9AF1-168568E7A097end)"/></g><text id="_D20BD22C-874D-4A1F-9AF1-168568E7A097text_name" font-size="12" x="89.21875" y="151" oryx:edgePosition="startTop" stroke-width="0pt" letter-spacing="-0.01px" fill="#000000" text-anchor="start" transform="rotate(360 75.21875 165)" visibility="inherit" oryx:fontSize="12"/></g><g class="children" style="overflow:hidden"/><g class="edge"/></g><g class="controls"><g class="dockers"/><g class="magnets"/></g></g><g id="_44BD7D35-A3A7-4DC4-8288-7EE2750A6554" bpmn2nodeid="_BCF01BAA-5CBE-4BC8-96B1-1C00FB54DBC0"><g class="stencils"><g class="me"><g pointer-events="painted" bpmn2nodeid="_0C2F937D-48BC-465E-9F44-F5626E78893D"><path id="_44BD7D35-A3A7-4DC4-8288-7EE2750A6554_1" d="M220.3359375 165L424.5859375 165 " stroke="#000000" fill="none" stroke-width="2" stroke-linecap="round" stroke-linejoin="round" marker-start="url(#_44BD7D35-A3A7-4DC4-8288-7EE2750A6554start)" marker-end="url(#_44BD7D35-A3A7-4DC4-8288-7EE2750A6554end)"/></g><text id="_44BD7D35-A3A7-4DC4-8288-7EE2750A6554text_name" font-size="12" x="234.3359375" y="151" oryx:edgePosition="startTop" stroke-width="0pt" letter-spacing="-0.01px" fill="#000000" text-anchor="start" transform="rotate(360 220.3359375 165)" visibility="inherit" oryx:fontSize="12"/></g><g class="children" style="overflow:hidden"/><g class="edge"/></g><g class="controls"><g class="dockers"/><g class="magnets"/></g></g></g><text id="_17AA6A6C-F65B-4841-96D0-32B3BF292AB1" style="stroke-width:1;fill:rgb(177,194,214);font-family:arial;font-weight:bold" font-size="12" onclick="ORYX.Plugins.CanvasTitle.openTextualAnalysis()" onmouseover="ORYX.Plugins.CanvasTitle.addToolTip('_17AA6A6C-F65B-4841-96D0-32B3BF292AB1')" transform="translate(10, 20)">CycleProcess v.1.0 (com.myspace.task_assignments.CycleProcess)</text></g></g></svg>