<svg xmlns="http://www.w3.org/2000/svg" xmlns:oryx="http://oryx-editor.org" id="_476C6A7F-0C7F-479E-A337-C15F8F2ACF03" width="480" height="286" xmlns:xlink="http://www.w3.org/1999/xlink" xmlns:svg="http://www.w3.org/2000/svg"><defs><marker id="_40CDC0D5-0275-4A42-A1A7-75529706FA67start" refX="1" refY="5" markerUnits="userSpaceOnUse" markerWidth="17" markerHeight="11" orient="auto" fill="#000000" stroke="#000000"> 	  		<path id="_40CDC0D5-0275-4A42-A1A7-75529706FA67conditional" d="M 0 5 L 8 0 L 16 5 L 8 10 L 0 5" fill="white" stroke="#000000" stroke-width="1" display="none"/> 			<path id="_40CDC0D5-0275-4A42-A1A7-75529706FA67default" d="M 5 0 L 11 10" fill="white" stroke="#000000" stroke-width="1" display="none"/> 	  	</marker><marker id="_40CDC0D5-0275-4A42-A1A7-75529706FA67end" refX="15" refY="6" markerUnits="userSpaceOnUse" markerWidth="15" markerHeight="12" orient="auto" fill="#000000" stroke="#000000"> 	  		<path id="_40CDC0D5-0275-4A42-A1A7-75529706FA67frame2" d="M 0 1 L 15 6 L 0 11z" fill="#000000" stroke="#000000" stroke-linejoin="round" stroke-width="2"/> 	  	</marker><marker id="_AC6F66AC-28B1-4E5C-BD8E-A3DD6087C50Cstart" refX="1" refY="5" markerUnits="userSpaceOnUse" markerWidth="17" markerHeight="11" orient="auto" fill="#000000" stroke="#000000"> 	  		<path id="_AC6F66AC-28B1-4E5C-BD8E-A3DD6087C50Cconditional" d="M 0 5 L 8 0 L 16 5 L 8 10 L 0 5" fill="white" stroke="#000000" stroke-width="1" display="none"/> 			<path id="_AC6F66AC-28B1-4E5C-BD8E-A3DD6087C50Cdefault" d="M 5 0 L 11 10" fill="white" stroke="#000000" stroke-width="1" display="none"/> 	  	</marker><marker id="_AC6F66AC-28B1-4E5C-BD8E-A3DD6087C50Cend" refX="15" refY="6" markerUnits="userSpaceOnUse" markerWidth="15" markerHeight="12" orient="auto" fill="#000000" stroke="#000000"> 	  		<path id="_AC6F66AC-28B1-4E5C-BD8E-A3DD6087C50Cframe2" d="M 0 1 L 15 6 L 0 11z" fill="#000000" stroke="#000000" stroke-linejoin="round" stroke-width="2"/> 	  	</marker><marker id="_9F0DDA02-F53A-4736-BE11-69358A1AF77Cstart" refX="1" refY="5" markerUnits="userSpaceOnUse" markerWidth="17" markerHeight="11" orient="auto" fill="#000000" stroke="#000000"> 	  		<path id="_9F0DDA02-F53A-4736-BE11-69358A1AF77Cconditional" d="M 0 5 L 8 0 L 16 5 L 8 10 L 0 5" fill="white" stroke="#000000" stroke-width="1" display="none"/> 			<path id="_9F0DDA02-F53A-4736-BE11-69358A1AF77Cdefault" d="M 5 0 L 11 10" fill="white" stroke="#000000" stroke-width="1" display="none"/> 	  	</marker><marker id="_9F0DDA02-F53A-4736-BE11-69358A1AF77Cend" refX="15" refY="6" markerUnits="userSpaceOnUse" markerWidth="15" markerHeight="12" orient="auto" fill="#000000" stroke="#000000"> 	  		<path id="_9F0DDA02-F53A-4736-BE11-69358A1AF77Cframe2" d="M 0 1 L 15 6 L 0 11z" fill="#000000" stroke="#000000" stroke-linejoin="round" stroke-width="2"/> 	  	</marker></defs><g stroke="none" font-family="Verdana, sans-serif" font-size-adjust="none" font-style="normal" font-variant="normal" font-weight="normal" line-heigth="normal" font-size="12"><g class="stencils" transform="translate(16, 16)"><g class="me"/><g class="children"><g id="_7065A468-A6C0-480A-A15C-8060422447CB" bpmn2nodeid="_39DB786C-442B-42EF-AFCE-663B3C936A0F"><g class="stencils" transform="translate(30, 186)"><g class="me"><g pointer-events="fill" id="_7065A468-A6C0-480A-A15C-8060422447CB">        <defs id="_7065A468-A6C0-480A-A15C-8060422447CB__7065A468-A6C0-480A-A15C-8060422447CB_5"> 		<radialGradient id="_7065A468-A6C0-480A-A15C-8060422447CBbackground" cx="10%" cy="10%" r="100%" fx="10%" fy="10%"> 			<stop offset="0%" stop-color="#ffffff" stop-opacity="1" id="_7065A468-A6C0-480A-A15C-8060422447CB__7065A468-A6C0-480A-A15C-8060422447CB_6"/> 			<stop id="_7065A468-A6C0-480A-A15C-8060422447CBfill_el" offset="100%" stop-color="#9acd32" stop-opacity="1"/> 		</radialGradient> 	</defs> 	     <circle id="_7065A468-A6C0-480A-A15C-8060422447CBbg_frame" cx="15" cy="15" r="15" stroke="#000000" fill="url(#_7065A468-A6C0-480A-A15C-8060422447CBbackground) white" stroke-width="1" style="stroke-dasharray: 5.5, 3"/>      <circle id="_7065A468-A6C0-480A-A15C-8060422447CBframe" cx="15" cy="15" r="15" stroke="#000000" fill="none" stroke-width="1" display="inherit"/>  	<text font-size="11" id="_7065A468-A6C0-480A-A15C-8060422447CBtext_name" x="15" y="32" oryx:align="top center" stroke="black" stroke-width="0pt" letter-spacing="-0.01px" fill="#000000" text-anchor="middle" transform="rotate(0 15 32)" visibility="inherit" oryx:fontSize="11"/>   </g></g><g class="children" style="overflow:hidden"/><g class="edge"/></g><g class="controls"><g class="dockers"/><g class="magnets" transform="translate(30, 186)"><g pointer-events="all" display="none" transform="translate(7, 7)"><circle cx="8" cy="8" r="4" stroke="none" fill="red" fill-opacity="0.3"/></g></g></g></g><g id="_EAC6D495-FBE4-438B-B97E-081AEB7E31FF" bpmn2nodeid="_E5452710-ED0D-4902-ADF5-8737921BC090"><g class="stencils" transform="translate(105, 161)"><g class="me"><g pointer-events="fill" oryx:minimumSize="50 40" id="_EAC6D495-FBE4-438B-B97E-081AEB7E31FF">   	<defs id="_EAC6D495-FBE4-438B-B97E-081AEB7E31FF__EAC6D495-FBE4-438B-B97E-081AEB7E31FF_17"> 		<radialGradient id="_EAC6D495-FBE4-438B-B97E-081AEB7E31FFbackground" cx="10%" cy="10%" r="100%" fx="10%" fy="10%"> 			<stop offset="0%" stop-color="#ffffff" stop-opacity="1" id="_EAC6D495-FBE4-438B-B97E-081AEB7E31FF__EAC6D495-FBE4-438B-B97E-081AEB7E31FF_18"/> 			<stop id="_EAC6D495-FBE4-438B-B97E-081AEB7E31FFfill_el" offset="100%" stop-color="#fafad2" stop-opacity="1"/> 		</radialGradient> 		<radialGradient id="_EAC6D495-FBE4-438B-B97E-081AEB7E31FFborderbackground" cx="10%" cy="10%" r="100%" fx="10%" fy="10%"> 			<stop offset="0%" stop-color="#ffffff" stop-opacity="1" id="_EAC6D495-FBE4-438B-B97E-081AEB7E31FF__EAC6D495-FBE4-438B-B97E-081AEB7E31FF_19"/> 			<stop id="_EAC6D495-FBE4-438B-B97E-081AEB7E31FFfill_border" offset="100%" stop-color="#000000" stop-opacity="1" stroke="#000000"/> 		</radialGradient> 	</defs> 	 	<rect id="_EAC6D495-FBE4-438B-B97E-081AEB7E31FFtext_frame" oryx:anchors="bottom top right left" x="1" y="1" width="94" height="79" rx="10" ry="10" stroke="none" stroke-width="0" fill="none"/> 	<rect id="_EAC6D495-FBE4-438B-B97E-081AEB7E31FFbg_frame" oryx:resize="vertical horizontal" x="0" y="0" width="100" height="80" rx="10" ry="10" stroke="#000000" stroke-width="1" fill="url(#_EAC6D495-FBE4-438B-B97E-081AEB7E31FFbackground) #ffffcc"/> 		<text font-size="12" id="_EAC6D495-FBE4-438B-B97E-081AEB7E31FFtext_name" x="50" y="40" oryx:align="middle center" oryx:fittoelem="text_frame" stroke="black" text-anchor="middle" stroke-width="0pt" letter-spacing="-0.01px" fill="#000000" transform="rotate(0 50 40)" visibility="inherit" oryx:fontSize="12"><tspan x="50" y="40" dy="5">Script1</tspan></text>     <g id="_EAC6D495-FBE4-438B-B97E-081AEB7E31FFmanualTask" transform="scale(0.7,0.7) translate(8,8)" display="none">     	<path oryx:anchors="top left" id="_EAC6D495-FBE4-438B-B97E-081AEB7E31FFframe" style="opacity:1;fill:none;fill-opacity:1;stroke-width:1" d="M0.5,3.751l4.083-3.25c0,0,11.166,0.083,12.083,0.083s-2.417,2.917-1.5,2.917     s11.667,0,12.584,0c1.166,1.708-0.168,3.167-0.834,3.667s0.875,1.917-1,4.417c-0.75,0.25,0.75,1.875-1.333,3.333     c-1.167,0.583,0.583,1.542-1.25,2.833c-1.167,0-20.833,0.083-20.833,0.083l-2-1.333V3.751z" stroke="#000000"/> 		<path id="_EAC6D495-FBE4-438B-B97E-081AEB7E31FFframe2" oryx:anchors="top left" style="opacity:1;fill:none;stroke-width:2" d="M 13.5 7 L 27 7" stroke="#000000"/> 		<path id="_EAC6D495-FBE4-438B-B97E-081AEB7E31FFframe3" oryx:anchors="top left" style="opacity:1;fill:none;stroke-width:2" d="M 13.5 11 L 26 11" stroke="#000000"/> 		<path id="_EAC6D495-FBE4-438B-B97E-081AEB7E31FFframe4" oryx:anchors="top left" style="opacity:1;fill:none;stroke-width:1.5" d="M 14 14.5 L 25 14.5" stroke="#000000"/> 		<path id="_EAC6D495-FBE4-438B-B97E-081AEB7E31FFframe5" oryx:anchors="top left" style="opacity:1;fill:none;stroke-width:1.5" d="M 8.2 3.1 L 15 3.1" stroke="#000000"/> 	</g> 	 	<g id="_EAC6D495-FBE4-438B-B97E-081AEB7E31FFbusinessRuleTask" transform="scale(0.7,0.7) translate(8,8)" display="none"> 		<rect id="_EAC6D495-FBE4-438B-B97E-081AEB7E31FFframe6" oryx:anchors="top left" x="0" y="0" width="22" height="4" style="opacity:1;fill:#B3B1B3;fill-opacity:1;" stroke="#000000"/> 		<rect id="_EAC6D495-FBE4-438B-B97E-081AEB7E31FFframe7" oryx:anchors="top left" x="0" y="4" style="opacity:1;fill:none;" width="22" height="12" stroke="#000000"/> 		<path id="_EAC6D495-FBE4-438B-B97E-081AEB7E31FFframe8" oryx:anchors="top left" style="opacity:1;fill:none;" d="M 0 10 L 22 10" stroke="#000000"/> 		<path id="_EAC6D495-FBE4-438B-B97E-081AEB7E31FFframe9" oryx:anchors="top left" style="opacity:1; fill:none;" d="M 7 4 L 7 16" stroke="#000000"/> 	</g> 	 	<g id="_EAC6D495-FBE4-438B-B97E-081AEB7E31FFscriptTask" transform="scale(0.7,0.7) translate(8,8)" display="inherit"> 		<path oryx:anchors="top left" id="_EAC6D495-FBE4-438B-B97E-081AEB7E31FFframe10" style="opacity:1;fill:none;" stroke="#000000" d="M6.402,0.5h14.5c0,0-5.833,2.833-5.833,5.583s4.417,6,4.417,9.167    s-4.167,5.083-4.167,5.083H0.235c0,0,5-2.667,5-5s-4.583-6.75-4.583-9.25S6.402,0.5,6.402,0.5z"/> 		<path oryx:anchors="top left" id="_EAC6D495-FBE4-438B-B97E-081AEB7E31FFframe11" style="opacity:1;fill:none;stroke-width:1.5" d="M 3.5 4.5 L 13.5 4.5" stroke="#000000"/> 		<path oryx:anchors="top left" id="_EAC6D495-FBE4-438B-B97E-081AEB7E31FFframe12" style="opacity:1;fill:none;stroke-width:1.5" d="M 3.8 8.5 L 13.8 8.5" stroke="#000000"/> 		<path oryx:anchors="top left" id="_EAC6D495-FBE4-438B-B97E-081AEB7E31FFframe13" style="opacity:1;fill:none;stroke-width:1.5" d="M 6.3 12.5 L 16.3 12.5" stroke="#000000"/> 		<path oryx:anchors="top left" id="_EAC6D495-FBE4-438B-B97E-081AEB7E31FFframe14" style="opacity:1;fill:none;stroke-width:1.5" d="M 6.5 16.5 L 16.5 16.5" stroke="#000000"/> 	</g> 	 	<g id="_EAC6D495-FBE4-438B-B97E-081AEB7E31FFuserTask" transform="scale(0.7,0.7) translate(8,8)" display="none"> 		<path id="_EAC6D495-FBE4-438B-B97E-081AEB7E31FFframe15" oryx:anchors="top left" style="opacity:1;fill:#F4F6F7" stroke="#000000" d="M0.585,24.167h24.083v-7.833c0,0-2.333-3.917-7.083-5.167h-9.25    c-4.417,1.333-7.833,5.75-7.833,5.75L0.585,24.167z"/> 		<path id="_EAC6D495-FBE4-438B-B97E-081AEB7E31FFframe16" oryx:anchors="top left" style="opacity:1;fill:none" d="M 6 20 L 6 24" stroke="#000000"/> 		<path id="_EAC6D495-FBE4-438B-B97E-081AEB7E31FFframe17" oryx:anchors="top left" style="opacity:1;fill:none" d="M 20 20 L 20 24" stroke="#000000"/> 		<circle id="_EAC6D495-FBE4-438B-B97E-081AEB7E31FFframe18" oryx:anchors="top left" fill="black" cx="13.002" cy="5.916" r="5.417" stroke="#000000"/> 		<path id="_EAC6D495-FBE4-438B-B97E-081AEB7E31FFframe19" oryx:anchors="top left" style="opacity:1;fill:#F0EFF0;" stroke="#000000" d="M8.043,7.083c0,0,2.814-2.426,5.376-1.807s4.624-0.693,4.624-0.693    c0.25,1.688,0.042,3.75-1.458,5.584c0,0,1.083,0.75,1.083,1.5s0.125,1.875-1,3s-5.5,1.25-6.75,0S8.668,12.834,8.668,12    s0.583-1.25,1.25-1.917C8.835,9.5,7.419,7.708,8.043,7.083z"/> 	</g> 	 	<g id="_EAC6D495-FBE4-438B-B97E-081AEB7E31FFserviceTask" transform="scale(0.7,0.7) translate(8,8)" display="none"> 		<polygon oryx:anchors="top left" id="_EAC6D495-FBE4-438B-B97E-081AEB7E31FFframe20" style="opacity:1;fill:#ffffff" stroke="#000000" points="15.392,5.064 17.954,2.502 20.347,4.895 17.786,7.455     18.729,9.732 22.353,9.732 22.353,13.115 18.731,13.115 17.788,15.392 20.351,17.955 17.958,20.347 15.397,17.786 13.12,18.729     13.12,22.353 9.737,22.353 9.737,18.731 7.46,17.788 4.897,20.35 2.506,17.958 5.066,15.397 4.124,13.12 0.5,13.12 0.5,9.737     4.121,9.737 5.065,7.461 2.503,4.898 4.895,2.506 7.455,5.066 9.732,4.125 9.732,0.5 13.116,0.5 13.116,4.121 "/> 		<circle oryx:anchors="top left" id="_EAC6D495-FBE4-438B-B97E-081AEB7E31FFframe21" style="opacity:1;fill:none" stroke="#000000" cx="11.427" cy="11.426" r="3.714"/> 		<polygon oryx:anchors="top left" id="_EAC6D495-FBE4-438B-B97E-081AEB7E31FFframe22" style="opacity:1;fill:#ffffff" stroke="#000000" points="21.392,11.064 23.954,8.502 26.347,10.895 23.786,13.455     24.729,15.732 28.353,15.732 28.353,19.115 24.731,19.115 23.788,21.392 26.351,23.955 23.958,26.347 21.397,23.786 19.12,24.729     19.12,28.353 15.737,28.353 15.737,24.731 13.46,23.788 10.897,26.35 8.506,23.958 11.066,21.397 10.124,19.12 6.5,19.12     6.5,15.737 10.121,15.737 11.065,13.461 8.503,10.898 10.895,8.506 13.455,11.066 15.732,10.125 15.732,6.5 19.116,6.5     19.116,10.121 "/> 		<circle oryx:anchors="top left" id="_EAC6D495-FBE4-438B-B97E-081AEB7E31FFframe23" style="opacity:1;fill:none;" stroke="#000000" cx="17.427" cy="17.426" r="3.714"/> 	</g> 	 	<g id="_EAC6D495-FBE4-438B-B97E-081AEB7E31FFsendTask" display="none"> 		<path id="_EAC6D495-FBE4-438B-B97E-081AEB7E31FFstframe24" oryx:anchors="left top" stroke="#FFFFFF" fill="black" stroke-width="1" d="M8,11 L8,21 L24,21 L24,11 L16,17z"/> 		<path id="_EAC6D495-FBE4-438B-B97E-081AEB7E31FFstframe25" oryx:anchors="left top" stroke="#FFFFFF" fill="black" stroke-width="1" d="M7,10 L16,17 L25 10z"/> 	</g> 	 	<g id="_EAC6D495-FBE4-438B-B97E-081AEB7E31FFreceiveTask" display="none"> 		<path id="_EAC6D495-FBE4-438B-B97E-081AEB7E31FFframe26" oryx:anchors="left top" stroke="#000000" fill="none" stroke-width="1" d="M8,11 L8,21 L24,21 L24,11z M8,11 L16,17 L24,11"/> 	</g> 	 	<g id="_EAC6D495-FBE4-438B-B97E-081AEB7E31FFnone" display="none"/>  	<g id="_EAC6D495-FBE4-438B-B97E-081AEB7E31FFsequential" display="none">         <path oryx:anchors="bottom" fill="none" stroke="#000000" stroke-width="2" d="M46,76h10M46,72h10 M46,68h10" id="_EAC6D495-FBE4-438B-B97E-081AEB7E31FF__EAC6D495-FBE4-438B-B97E-081AEB7E31FF_20"/>     </g>   </g></g><g class="children" style="overflow:hidden"/><g class="edge"/></g><g class="controls"><g class="dockers"/><g class="magnets" transform="translate(105, 161)"><g pointer-events="all" display="none" transform="translate(-7, 12)"><circle cx="8" cy="8" r="4" stroke="none" fill="red" fill-opacity="0.3"/></g><g pointer-events="all" display="none" transform="translate(-7, 32)"><circle cx="8" cy="8" r="4" stroke="none" fill="red" fill-opacity="0.3"/></g><g pointer-events="all" display="none" transform="translate(-7, 52)"><circle cx="8" cy="8" r="4" stroke="none" fill="red" fill-opacity="0.3"/></g><g pointer-events="all" display="none" transform="translate(17, 71)"><circle cx="8" cy="8" r="4" stroke="none" fill="red" fill-opacity="0.3"/></g><g pointer-events="all" display="none" transform="translate(42, 71)"><circle cx="8" cy="8" r="4" stroke="none" fill="red" fill-opacity="0.3"/></g><g pointer-events="all" display="none" transform="translate(67, 71)"><circle cx="8" cy="8" r="4" stroke="none" fill="red" fill-opacity="0.3"/></g><g pointer-events="all" display="none" transform="translate(91, 12)"><circle cx="8" cy="8" r="4" stroke="none" fill="red" fill-opacity="0.3"/></g><g pointer-events="all" display="none" transform="translate(91, 32)"><circle cx="8" cy="8" r="4" stroke="none" fill="red" fill-opacity="0.3"/></g><g pointer-events="all" display="none" transform="translate(91, 52)"><circle cx="8" cy="8" r="4" stroke="none" fill="red" fill-opacity="0.3"/></g><g pointer-events="all" display="none" transform="translate(17, -7)"><circle cx="8" cy="8" r="4" stroke="none" fill="red" fill-opacity="0.3"/></g><g pointer-events="all" display="none" transform="translate(42, -7)"><circle cx="8" cy="8" r="4" stroke="none" fill="red" fill-opacity="0.3"/></g><g pointer-events="all" display="none" transform="translate(67, -7)"><circle cx="8" cy="8" r="4" stroke="none" fill="red" fill-opacity="0.3"/></g><g pointer-events="all" display="none" transform="translate(42, 32)"><circle cx="8" cy="8" r="4" stroke="none" fill="red" fill-opacity="0.3"/></g></g></g></g><g id="_B79C1DE8-AAC3-4BC2-ACA5-81A8E0449921" bpmn2nodeid="_B95E7460-48F5-4C4A-B51E-F69B92344EF0"><g class="stencils" transform="translate(250, 181)"><g class="me"><g id="_B79C1DE8-AAC3-4BC2-ACA5-81A8E0449921">      <defs id="_B79C1DE8-AAC3-4BC2-ACA5-81A8E0449921__B79C1DE8-AAC3-4BC2-ACA5-81A8E0449921_4"> 		<radialGradient id="_B79C1DE8-AAC3-4BC2-ACA5-81A8E0449921background" cx="10%" cy="10%" r="100%" fx="10%" fy="10%"> 			<stop offset="0%" stop-color="#ffffff" stop-opacity="1" id="_B79C1DE8-AAC3-4BC2-ACA5-81A8E0449921__B79C1DE8-AAC3-4BC2-ACA5-81A8E0449921_5"/> 			<stop id="_B79C1DE8-AAC3-4BC2-ACA5-81A8E0449921fill_el" offset="100%" stop-color="#f0e68c" stop-opacity="1"/> 		</radialGradient> 	</defs> 	     <path d=" M0 20.5  L20.5 0  L40 20.5  L20.5 40  z" id="_B79C1DE8-AAC3-4BC2-ACA5-81A8E0449921bg_frame" fill="url(#_B79C1DE8-AAC3-4BC2-ACA5-81A8E0449921background) white" style="stroke-width:1" stroke="#a67f00"/>     <path id="_B79C1DE8-AAC3-4BC2-ACA5-81A8E0449921frame" d=" M11.25 20.5  L30.25 20.5  M20.5 11.25  L20.5 30.25 " style="fill:none;stroke-width:3" stroke="#a67f00"/>      	<text id="_B79C1DE8-AAC3-4BC2-ACA5-81A8E0449921text_name" x="30.5" y="30.5" oryx:align="left top" stroke-width="0pt" letter-spacing="-0.01px" fill="#000000" text-anchor="start" transform="rotate(0 30.5 30.5)" visibility="inherit" oryx:fontSize="12"/> 	   </g></g><g class="children" style="overflow:hidden"/><g class="edge"/></g><g class="controls"><g class="dockers"/><g class="magnets" transform="translate(250, 181)"><g pointer-events="all" display="none" transform="translate(12.5, 12.5)"><circle cx="8" cy="8" r="4" stroke="none" fill="red" fill-opacity="0.3"/></g></g></g></g><g id="_FA18B621-0C3A-4831-AC1E-1CF5D70DD1A4" bpmn2nodeid="_435B9354-C107-424F-8B73-2F182723AB18"><g class="stencils" transform="translate(335, 161)"><g class="me"><g pointer-events="fill" oryx:minimumSize="50 40" id="_FA18B621-0C3A-4831-AC1E-1CF5D70DD1A4">   	<defs id="_FA18B621-0C3A-4831-AC1E-1CF5D70DD1A4__FA18B621-0C3A-4831-AC1E-1CF5D70DD1A4_17"> 		<radialGradient id="_FA18B621-0C3A-4831-AC1E-1CF5D70DD1A4background" cx="10%" cy="10%" r="100%" fx="10%" fy="10%"> 			<stop offset="0%" stop-color="#ffffff" stop-opacity="1" id="_FA18B621-0C3A-4831-AC1E-1CF5D70DD1A4__FA18B621-0C3A-4831-AC1E-1CF5D70DD1A4_18"/> 			<stop id="_FA18B621-0C3A-4831-AC1E-1CF5D70DD1A4fill_el" offset="100%" stop-color="#fafad2" stop-opacity="1"/> 		</radialGradient> 		<radialGradient id="_FA18B621-0C3A-4831-AC1E-1CF5D70DD1A4borderbackground" cx="10%" cy="10%" r="100%" fx="10%" fy="10%"> 			<stop offset="0%" stop-color="#ffffff" stop-opacity="1" id="_FA18B621-0C3A-4831-AC1E-1CF5D70DD1A4__FA18B621-0C3A-4831-AC1E-1CF5D70DD1A4_19"/> 			<stop id="_FA18B621-0C3A-4831-AC1E-1CF5D70DD1A4fill_border" offset="100%" stop-color="#000000" stop-opacity="1" stroke="#000000"/> 		</radialGradient> 	</defs> 	 	<rect id="_FA18B621-0C3A-4831-AC1E-1CF5D70DD1A4text_frame" oryx:anchors="bottom top right left" x="1" y="1" width="94" height="79" rx="10" ry="10" stroke="none" stroke-width="0" fill="none"/> 	<rect id="_FA18B621-0C3A-4831-AC1E-1CF5D70DD1A4bg_frame" oryx:resize="vertical horizontal" x="0" y="0" width="100" height="80" rx="10" ry="10" stroke="#000000" stroke-width="1" fill="url(#_FA18B621-0C3A-4831-AC1E-1CF5D70DD1A4background) #ffffcc"/> 		<text font-size="12" id="_FA18B621-0C3A-4831-AC1E-1CF5D70DD1A4text_name" x="50" y="40" oryx:align="middle center" oryx:fittoelem="text_frame" stroke="black" text-anchor="middle" stroke-width="0pt" letter-spacing="-0.01px" fill="#000000" transform="rotate(0 50 40)" visibility="inherit" oryx:fontSize="12"/>     <g id="_FA18B621-0C3A-4831-AC1E-1CF5D70DD1A4manualTask" transform="scale(0.7,0.7) translate(8,8)" display="none">     	<path oryx:anchors="top left" id="_FA18B621-0C3A-4831-AC1E-1CF5D70DD1A4frame" style="opacity:1;fill:none;fill-opacity:1;stroke-width:1" d="M0.5,3.751l4.083-3.25c0,0,11.166,0.083,12.083,0.083s-2.417,2.917-1.5,2.917     s11.667,0,12.584,0c1.166,1.708-0.168,3.167-0.834,3.667s0.875,1.917-1,4.417c-0.75,0.25,0.75,1.875-1.333,3.333     c-1.167,0.583,0.583,1.542-1.25,2.833c-1.167,0-20.833,0.083-20.833,0.083l-2-1.333V3.751z" stroke="#000000"/> 		<path id="_FA18B621-0C3A-4831-AC1E-1CF5D70DD1A4frame2" oryx:anchors="top left" style="opacity:1;fill:none;stroke-width:2" d="M 13.5 7 L 27 7" stroke="#000000"/> 		<path id="_FA18B621-0C3A-4831-AC1E-1CF5D70DD1A4frame3" oryx:anchors="top left" style="opacity:1;fill:none;stroke-width:2" d="M 13.5 11 L 26 11" stroke="#000000"/> 		<path id="_FA18B621-0C3A-4831-AC1E-1CF5D70DD1A4frame4" oryx:anchors="top left" style="opacity:1;fill:none;stroke-width:1.5" d="M 14 14.5 L 25 14.5" stroke="#000000"/> 		<path id="_FA18B621-0C3A-4831-AC1E-1CF5D70DD1A4frame5" oryx:anchors="top left" style="opacity:1;fill:none;stroke-width:1.5" d="M 8.2 3.1 L 15 3.1" stroke="#000000"/> 	</g> 	 	<g id="_FA18B621-0C3A-4831-AC1E-1CF5D70DD1A4businessRuleTask" transform="scale(0.7,0.7) translate(8,8)" display="none"> 		<rect id="_FA18B621-0C3A-4831-AC1E-1CF5D70DD1A4frame6" oryx:anchors="top left" x="0" y="0" width="22" height="4" style="opacity:1;fill:#B3B1B3;fill-opacity:1;" stroke="#000000"/> 		<rect id="_FA18B621-0C3A-4831-AC1E-1CF5D70DD1A4frame7" oryx:anchors="top left" x="0" y="4" style="opacity:1;fill:none;" width="22" height="12" stroke="#000000"/> 		<path id="_FA18B621-0C3A-4831-AC1E-1CF5D70DD1A4frame8" oryx:anchors="top left" style="opacity:1;fill:none;" d="M 0 10 L 22 10" stroke="#000000"/> 		<path id="_FA18B621-0C3A-4831-AC1E-1CF5D70DD1A4frame9" oryx:anchors="top left" style="opacity:1; fill:none;" d="M 7 4 L 7 16" stroke="#000000"/> 	</g> 	 	<g id="_FA18B621-0C3A-4831-AC1E-1CF5D70DD1A4scriptTask" transform="scale(0.7,0.7) translate(8,8)" display="none"> 		<path oryx:anchors="top left" id="_FA18B621-0C3A-4831-AC1E-1CF5D70DD1A4frame10" style="opacity:1;fill:none;" stroke="#000000" d="M6.402,0.5h14.5c0,0-5.833,2.833-5.833,5.583s4.417,6,4.417,9.167    s-4.167,5.083-4.167,5.083H0.235c0,0,5-2.667,5-5s-4.583-6.75-4.583-9.25S6.402,0.5,6.402,0.5z"/> 		<path oryx:anchors="top left" id="_FA18B621-0C3A-4831-AC1E-1CF5D70DD1A4frame11" style="opacity:1;fill:none;stroke-width:1.5" d="M 3.5 4.5 L 13.5 4.5" stroke="#000000"/> 		<path oryx:anchors="top left" id="_FA18B621-0C3A-4831-AC1E-1CF5D70DD1A4frame12" style="opacity:1;fill:none;stroke-width:1.5" d="M 3.8 8.5 L 13.8 8.5" stroke="#000000"/> 		<path oryx:anchors="top left" id="_FA18B621-0C3A-4831-AC1E-1CF5D70DD1A4frame13" style="opacity:1;fill:none;stroke-width:1.5" d="M 6.3 12.5 L 16.3 12.5" stroke="#000000"/> 		<path oryx:anchors="top left" id="_FA18B621-0C3A-4831-AC1E-1CF5D70DD1A4frame14" style="opacity:1;fill:none;stroke-width:1.5" d="M 6.5 16.5 L 16.5 16.5" stroke="#000000"/> 	</g> 	 	<g id="_FA18B621-0C3A-4831-AC1E-1CF5D70DD1A4userTask" transform="scale(0.7,0.7) translate(8,8)" display="inherit"> 		<path id="_FA18B621-0C3A-4831-AC1E-1CF5D70DD1A4frame15" oryx:anchors="top left" style="opacity:1;fill:#F4F6F7" stroke="#000000" d="M0.585,24.167h24.083v-7.833c0,0-2.333-3.917-7.083-5.167h-9.25    c-4.417,1.333-7.833,5.75-7.833,5.75L0.585,24.167z"/> 		<path id="_FA18B621-0C3A-4831-AC1E-1CF5D70DD1A4frame16" oryx:anchors="top left" style="opacity:1;fill:none" d="M 6 20 L 6 24" stroke="#000000"/> 		<path id="_FA18B621-0C3A-4831-AC1E-1CF5D70DD1A4frame17" oryx:anchors="top left" style="opacity:1;fill:none" d="M 20 20 L 20 24" stroke="#000000"/> 		<circle id="_FA18B621-0C3A-4831-AC1E-1CF5D70DD1A4frame18" oryx:anchors="top left" fill="black" cx="13.002" cy="5.916" r="5.417" stroke="#000000"/> 		<path id="_FA18B621-0C3A-4831-AC1E-1CF5D70DD1A4frame19" oryx:anchors="top left" style="opacity:1;fill:#F0EFF0;" stroke="#000000" d="M8.043,7.083c0,0,2.814-2.426,5.376-1.807s4.624-0.693,4.624-0.693    c0.25,1.688,0.042,3.75-1.458,5.584c0,0,1.083,0.75,1.083,1.5s0.125,1.875-1,3s-5.5,1.25-6.75,0S8.668,12.834,8.668,12    s0.583-1.25,1.25-1.917C8.835,9.5,7.419,7.708,8.043,7.083z"/> 	</g> 	 	<g id="_FA18B621-0C3A-4831-AC1E-1CF5D70DD1A4serviceTask" transform="scale(0.7,0.7) translate(8,8)" display="none"> 		<polygon oryx:anchors="top left" id="_FA18B621-0C3A-4831-AC1E-1CF5D70DD1A4frame20" style="opacity:1;fill:#ffffff" stroke="#000000" points="15.392,5.064 17.954,2.502 20.347,4.895 17.786,7.455     18.729,9.732 22.353,9.732 22.353,13.115 18.731,13.115 17.788,15.392 20.351,17.955 17.958,20.347 15.397,17.786 13.12,18.729     13.12,22.353 9.737,22.353 9.737,18.731 7.46,17.788 4.897,20.35 2.506,17.958 5.066,15.397 4.124,13.12 0.5,13.12 0.5,9.737     4.121,9.737 5.065,7.461 2.503,4.898 4.895,2.506 7.455,5.066 9.732,4.125 9.732,0.5 13.116,0.5 13.116,4.121 "/> 		<circle oryx:anchors="top left" id="_FA18B621-0C3A-4831-AC1E-1CF5D70DD1A4frame21" style="opacity:1;fill:none" stroke="#000000" cx="11.427" cy="11.426" r="3.714"/> 		<polygon oryx:anchors="top left" id="_FA18B621-0C3A-4831-AC1E-1CF5D70DD1A4frame22" style="opacity:1;fill:#ffffff" stroke="#000000" points="21.392,11.064 23.954,8.502 26.347,10.895 23.786,13.455     24.729,15.732 28.353,15.732 28.353,19.115 24.731,19.115 23.788,21.392 26.351,23.955 23.958,26.347 21.397,23.786 19.12,24.729     19.12,28.353 15.737,28.353 15.737,24.731 13.46,23.788 10.897,26.35 8.506,23.958 11.066,21.397 10.124,19.12 6.5,19.12     6.5,15.737 10.121,15.737 11.065,13.461 8.503,10.898 10.895,8.506 13.455,11.066 15.732,10.125 15.732,6.5 19.116,6.5     19.116,10.121 "/> 		<circle oryx:anchors="top left" id="_FA18B621-0C3A-4831-AC1E-1CF5D70DD1A4frame23" style="opacity:1;fill:none;" stroke="#000000" cx="17.427" cy="17.426" r="3.714"/> 	</g> 	 	<g id="_FA18B621-0C3A-4831-AC1E-1CF5D70DD1A4sendTask" display="none"> 		<path id="_FA18B621-0C3A-4831-AC1E-1CF5D70DD1A4stframe24" oryx:anchors="left top" stroke="#FFFFFF" fill="black" stroke-width="1" d="M8,11 L8,21 L24,21 L24,11 L16,17z"/> 		<path id="_FA18B621-0C3A-4831-AC1E-1CF5D70DD1A4stframe25" oryx:anchors="left top" stroke="#FFFFFF" fill="black" stroke-width="1" d="M7,10 L16,17 L25 10z"/> 	</g> 	 	<g id="_FA18B621-0C3A-4831-AC1E-1CF5D70DD1A4receiveTask" display="none"> 		<path id="_FA18B621-0C3A-4831-AC1E-1CF5D70DD1A4frame26" oryx:anchors="left top" stroke="#000000" fill="none" stroke-width="1" d="M8,11 L8,21 L24,21 L24,11z M8,11 L16,17 L24,11"/> 	</g> 	 	<g id="_FA18B621-0C3A-4831-AC1E-1CF5D70DD1A4none" display="none"/>  	<g id="_FA18B621-0C3A-4831-AC1E-1CF5D70DD1A4sequential" display="none">         <path oryx:anchors="bottom" fill="none" stroke="#000000" stroke-width="2" d="M46,76h10M46,72h10 M46,68h10" id="_FA18B621-0C3A-4831-AC1E-1CF5D70DD1A4__FA18B621-0C3A-4831-AC1E-1CF5D70DD1A4_20"/>     </g>   </g></g><g class="children" style="overflow:hidden"/><g class="edge"/></g><g class="controls"><g class="dockers"/><g class="magnets" transform="translate(335, 161)"><g pointer-events="all" display="none" transform="translate(-7, 12)"><circle cx="8" cy="8" r="4" stroke="none" fill="red" fill-opacity="0.3"/></g><g pointer-events="all" display="none" transform="translate(-7, 32)"><circle cx="8" cy="8" r="4" stroke="none" fill="red" fill-opacity="0.3"/></g><g pointer-events="all" display="none" transform="translate(-7, 52)"><circle cx="8" cy="8" r="4" stroke="none" fill="red" fill-opacity="0.3"/></g><g pointer-events="all" display="none" transform="translate(17, 71)"><circle cx="8" cy="8" r="4" stroke="none" fill="red" fill-opacity="0.3"/></g><g pointer-events="all" display="none" transform="translate(42, 71)"><circle cx="8" cy="8" r="4" stroke="none" fill="red" fill-opacity="0.3"/></g><g pointer-events="all" display="none" transform="translate(67, 71)"><circle cx="8" cy="8" r="4" stroke="none" fill="red" fill-opacity="0.3"/></g><g pointer-events="all" display="none" transform="translate(91, 12)"><circle cx="8" cy="8" r="4" stroke="none" fill="red" fill-opacity="0.3"/></g><g pointer-events="all" display="none" transform="translate(91, 32)"><circle cx="8" cy="8" r="4" stroke="none" fill="red" fill-opacity="0.3"/></g><g pointer-events="all" display="none" transform="translate(91, 52)"><circle cx="8" cy="8" r="4" stroke="none" fill="red" fill-opacity="0.3"/></g><g pointer-events="all" display="none" transform="translate(17, -7)"><circle cx="8" cy="8" r="4" stroke="none" fill="red" fill-opacity="0.3"/></g><g pointer-events="all" display="none" transform="translate(42, -7)"><circle cx="8" cy="8" r="4" stroke="none" fill="red" fill-opacity="0.3"/></g><g pointer-events="all" display="none" transform="translate(67, -7)"><circle cx="8" cy="8" r="4" stroke="none" fill="red" fill-opacity="0.3"/></g><g pointer-events="all" display="none" transform="translate(42, 32)"><circle cx="8" cy="8" r="4" stroke="none" fill="red" fill-opacity="0.3"/></g></g></g></g></g><g class="edge"><g id="_40CDC0D5-0275-4A42-A1A7-75529706FA67" bpmn2nodeid="_AAA4747B-4619-46F6-AEFD-2551D184CB7B"><g class="stencils"><g class="me"><g pointer-events="painted" bpmn2nodeid="_AAA4747B-4619-46F6-AEFD-2551D184CB7B"><path id="_40CDC0D5-0275-4A42-A1A7-75529706FA67_1" d="M60.609375 201L104.15625 201 " stroke="#000000" fill="none" stroke-width="2" stroke-linecap="round" stroke-linejoin="round" marker-start="url(#_40CDC0D5-0275-4A42-A1A7-75529706FA67start)" marker-end="url(#_40CDC0D5-0275-4A42-A1A7-75529706FA67end)"/></g><text id="_40CDC0D5-0275-4A42-A1A7-75529706FA67text_name" font-size="12" x="74.609375" y="187" oryx:edgePosition="startTop" stroke-width="0pt" letter-spacing="-0.01px" fill="#000000" text-anchor="start" transform="rotate(360 60.609375 201)" visibility="inherit" oryx:fontSize="12"/></g><g class="children" style="overflow:hidden"/><g class="edge"/></g><g class="controls"><g class="dockers"/><g class="magnets"/></g></g><g id="_AC6F66AC-28B1-4E5C-BD8E-A3DD6087C50C" bpmn2nodeid="_7E19004D-BCC8-4406-B81D-50D868CA177D"><g class="stencils"><g class="me"><g pointer-events="painted" bpmn2nodeid="_7E19004D-BCC8-4406-B81D-50D868CA177D"><path id="_AC6F66AC-28B1-4E5C-BD8E-A3DD6087C50C_1" d="M205.62889687999245 201.2191727137662L249.64844687000755 201.4097335362338 " stroke="#000000" fill="none" stroke-width="2" stroke-linecap="round" stroke-linejoin="round" marker-start="url(#_AC6F66AC-28B1-4E5C-BD8E-A3DD6087C50Cstart)" marker-end="url(#_AC6F66AC-28B1-4E5C-BD8E-A3DD6087C50Cend)"/></g><text id="_AC6F66AC-28B1-4E5C-BD8E-A3DD6087C50Ctext_name" font-size="12" x="219.62889687999245" y="187.2191727137662" oryx:edgePosition="startTop" stroke-width="0pt" letter-spacing="-0.01px" fill="#000000" text-anchor="start" transform="rotate(0.24803212815652387 205.62889687999245 201.2191727137662)" visibility="inherit" oryx:fontSize="12"/></g><g class="children" style="overflow:hidden"/><g class="edge"/></g><g class="controls"><g class="dockers"/><g class="magnets"/></g></g><g id="_9F0DDA02-F53A-4736-BE11-69358A1AF77C" bpmn2nodeid="_7BE1174E-5E22-4864-9D11-00D21147C9C7"><g class="stencils"><g class="me"><g pointer-events="painted" bpmn2nodeid="_7BE1174E-5E22-4864-9D11-00D21147C9C7"><path id="_9F0DDA02-F53A-4736-BE11-69358A1AF77C_1" d="M290.28514671561186 201.41360197940782L334.80079078438814 201.21921052059218 " stroke="#000000" fill="none" stroke-width="2" stroke-linecap="round" stroke-linejoin="round" marker-start="url(#_9F0DDA02-F53A-4736-BE11-69358A1AF77Cstart)" marker-end="url(#_9F0DDA02-F53A-4736-BE11-69358A1AF77Cend)"/></g><text id="_9F0DDA02-F53A-4736-BE11-69358A1AF77Ctext_name" font-size="12" x="304.28514671561186" y="187.41360197940782" oryx:edgePosition="startTop" stroke-width="0pt" letter-spacing="-0.01px" fill="#000000" text-anchor="start" transform="rotate(359.74980167980243 290.28514671561186 201.41360197940782)" visibility="inherit" oryx:fontSize="12"/></g><g class="children" style="overflow:hidden"/><g class="edge"/></g><g class="controls"><g class="dockers"/><g class="magnets"/></g></g></g><text id="_C8C99B49-50D7-4921-A922-BC48A0404232" style="stroke-width:1;fill:rgb(177,194,214);font-family:arial;font-weight:bold" font-size="12" onclick="ORYX.Plugins.CanvasTitle.openTextualAnalysis()" onmouseover="ORYX.Plugins.CanvasTitle.addToolTip('_C8C99B49-50D7-4921-A922-BC48A0404232')" transform="translate(10, 20)">ProcessWithCycle v.1.0 (task-assignments.ProcessWithCycle)</text><text id="_C8C99B49-50D7-4921-A922-BC48A0404232" style="stroke-width:1;fill:rgb(177,194,214);font-family:arial;font-weight:bold" font-size="12" onclick="ORYX.Plugins.CanvasTitle.openTextualAnalysis()" onmouseover="ORYX.Plugins.CanvasTitle.addToolTip('_C8C99B49-50D7-4921-A922-BC48A0404232')" transform="translate(10, 20)">ProcessWithCycle v.1.0 (task-assignments.ProcessWithCycle)</text></g></g></svg>